<svg xmlns="http://www.w3.org/2000/svg" xmlns:xlink="http://www.w3.org/1999/xlink" height="50" width="50"><defs><linearGradient id="a"><stop offset="0" stop-color="#7d4f1f"/><stop offset="1" stop-color="#e38b22" stop-opacity=".933"/></linearGradient><linearGradient id="b"><stop offset="0" stop-color="#fff" stop-opacity="0"/><stop offset=".409" stop-color="#fff" stop-opacity=".7"/><stop offset="1" stop-color="#fff" stop-opacity="0"/></linearGradient><linearGradient xlink:href="#a" id="f" x1="221.081" y1="249.278" x2="84.566" y2="112.762" gradientUnits="userSpaceOnUse" gradientTransform="translate(-1.369 -8.985) scale(.23944)"/><linearGradient xlink:href="#b" id="g" x1="62.779" y1="67.596" x2="144.042" y2="148.859" gradientUnits="userSpaceOnUse" gradientTransform="translate(-1.369 -8.985) scale(.23944)"/><radialGradient gradientUnits="userSpaceOnUse" gradientTransform="rotate(-45 23.384 38.569) scale(1.41807 1.33975)" r="5.613" fy="22.566" fx="25.078" cy="22.566" cx="25.078" id="d" xlink:href="#a"/><radialGradient gradientUnits="userSpaceOnUse" gradientTransform="matrix(1.38918 -1.38918 .65742 .65742 -23.618 42.729)" r="17.435" fy="22.703" fx="24.365" cy="22.703" cx="24.365" id="e" xlink:href="#a"/><filter id="h" x="-.004" width="1.008" y="-.003" height="1.006" color-interpolation-filters="sRGB"><feGaussianBlur stdDeviation=".014"/></filter><filter id="c" x="-.003" width="1.006" y="-.003" height="1.006" color-interpolation-filters="sRGB"><feGaussianBlur stdDeviation=".055"/></filter></defs><path d="M24.064-.17c-.282-.002-.554.007-.826.016a.532.532 0 00-.008 0c-.327.012-.653.032-.974.058a.532.532 0 00-.428.28l-.295.562A.532.532 0 0021.48.9l-.382 2.024a.532.532 0 000 .162l.013.154-1.474.295-.037-.154a.532.532 0 00-.067-.154l-1.115-1.729a.532.532 0 00-.111-.117l-.494-.414a.532.532 0 00-.502-.104 22.073 22.073 0 00-3.336 1.373.532.532 0 00-.29.422l-.058.64a.532.532 0 00.016.165l.427 2.014a.532.532 0 00.051.156l.082.133-1.262.841-.097-.132a.532.532 0 00-.117-.112l-1.692-1.166a.532.532 0 00-.139-.074l-.613-.191a.532.532 0 00-.502.103c-.92.775-1.78 1.616-2.562 2.531a.532.532 0 00-.104.51l.194.613a.532.532 0 00.066.14l1.158 1.698a.532.532 0 00.112.118l.132.095-.841 1.256-.141-.082a.532.532 0 00-.154-.05l-2.008-.436a.532.532 0 00-.156-.016l-.641.053a.532.532 0 00-.43.287 22.075 22.075 0 00-1.386 3.33.532.532 0 00.095.502l.406.494a.532.532 0 00.125.104l1.721 1.12a.532.532 0 00.147.067l.156.045-.297 1.484-.162-.015a.532.532 0 00-.162 0l-2.022.369a.532.532 0 00-.148.05l-.568.298a.532.532 0 00-.288.427 22.035 22.035 0 00-.015 3.602.532.532 0 00.281.428l.568.302a.532.532 0 00.155.053l2.023.377a.532.532 0 00.162 0l.155-.016.289 1.485-.157.037a.532.532 0 00-.146.072l-1.72 1.115a.532.532 0 00-.12.096l-.412.488a.532.532 0 00-.104.51 22.133 22.133 0 001.373 3.336.532.532 0 00.42.287l.635.06a.532.532 0 00.164-.007l2.014-.422a.532.532 0 00.156-.058l.133-.08.834 1.253-.125.096a.532.532 0 00-.111.12L7.3 34.85a.532.532 0 00-.074.14l-.192.614a.532.532 0 00.104.501c.775.919 1.623 1.78 2.539 2.561a.532.532 0 00.502.104l.613-.184a.532.532 0 00.146-.074l1.7-1.166a.532.532 0 00.117-.104l.096-.133 1.255.842-.082.139a.532.532 0 00-.05.156l-.436 2.016a.532.532 0 00-.016.154l.053.635a.532.532 0 00.287.428 22.135 22.135 0 003.33 1.394.532.532 0 00.502-.102l.494-.414a.532.532 0 00.104-.119l1.121-1.718a.532.532 0 00.066-.149l.045-.154 1.477.295-.016.154a.532.532 0 000 .17l.37 2.031a.532.532 0 00.052.147l.295.568a.532.532 0 00.428.29c.602.05 1.21.071 1.808.073.602.002 1.2-.018 1.801-.066a.532.532 0 00.428-.281l.303-.569a.532.532 0 00.052-.156l.377-2.014a.532.532 0 00.006-.162l-.021-.164 1.484-.287.037.154a.532.532 0 00.067.149l1.107 1.726a.532.532 0 00.11.12l.494.412a.532.532 0 00.502.103 22.058 22.058 0 003.337-1.373.532.532 0 00.288-.42l.058-.642a.532.532 0 00-.006-.162l-.422-2.008a.532.532 0 00-.058-.155l-.082-.132 1.256-.836.095.127a.532.532 0 00.12.109l1.689 1.168a.532.532 0 00.14.072l.614.194a.532.532 0 00.502-.104 22.057 22.057 0 002.56-2.539.532.532 0 00.104-.51l-.192-.613a.532.532 0 00-.066-.14l-1.16-1.698a.532.532 0 00-.117-.117l-.125-.098.841-1.254.14.08a.532.532 0 00.155.06l2.008.429a.532.532 0 00.155.013l.642-.05a.532.532 0 00.428-.288 22.1 22.1 0 001.394-3.33.532.532 0 00-.101-.502l-.414-.494a.532.532 0 00-.12-.103l-1.718-1.123a.532.532 0 00-.149-.073l-.154-.037.295-1.484.162.021a.532.532 0 00.17 0l2.016-.369a.532.532 0 00.146-.05l.57-.295a.532.532 0 00.288-.428 22.08 22.08 0 00.013-3.611.532.532 0 00-.287-.428l-.568-.295a.532.532 0 00-.149-.053l-2.021-.375a.532.532 0 00-.162 0l-.156.014-.288-1.483.155-.037a.532.532 0 00.148-.066l1.727-1.115a.532.532 0 00.119-.112l.412-.494a.532.532 0 00.103-.502 22.07 22.07 0 00-1.373-3.336.532.532 0 00-.427-.289l-.643-.05a.532.532 0 00-.154.007l-2.008.42a.532.532 0 00-.148.059l-.147.082-.834-1.262.125-.098a.532.532 0 00.111-.117l1.174-1.691a.532.532 0 00.073-.139l.193-.613a.532.532 0 00-.104-.502 22.095 22.095 0 00-2.539-2.563.532.532 0 00-.51-.101l-.613.191a.532.532 0 00-.14.067l-1.698 1.158a.532.532 0 00-.119.119l-.101.125-1.248-.842.08-.14a.532.532 0 00.06-.155l.436-2.008a.532.532 0 00.013-.162l-.058-.642a.532.532 0 00-.287-.422 22.1 22.1 0 00-3.33-1.387.532.532 0 00-.502.096l-.494.406a.532.532 0 00-.104.125l-1.123 1.72a.532.532 0 00-.072.147l-.037.157-1.477-.295.014-.157a.532.532 0 000-.17L26.64.917a.532.532 0 00-.05-.148l-.295-.569a.532.532 0 00-.43-.287c-.595-.05-1.196-.08-1.8-.082zm-.02 20.56a1.499 1.499 0 011.454 1.442 1.499 1.499 0 01-1.441 1.555 1.499 1.499 0 01-1.555-1.44 1.499 1.499 0 011.441-1.554 1.499 1.499 0 01.102-.002z" transform="matrix(1.03196 0 0 1.03196 .234 .783)" fill="#7ceea0" filter="url(#c)"/><path d="M24.255 1.923a21.46 21.46 0 00-.946.056l-.3.565-.378 2.013.081.65-2.447.481-.17-.634-1.11-1.721-.488-.413a21.46 21.46 0 00-3.246 1.332l-.06.64.423 2.004.324.57-2.078 1.38-.4-.52-1.686-1.165-.608-.192A21.46 21.46 0 008.677 9.44l.19.612 1.156 1.692.517.4-1.39 2.072-.569-.328-2.001-.432-.64.054a21.46 21.46 0 00-1.35 3.238l.407.49 1.716 1.122.633.175-.496 2.444-.65-.086-2.015.369-.567.295a21.46 21.46 0 00-.077 1.753 21.46 21.46 0 00.064 1.752l.567.299 2.015.379.652-.082.478 2.448-.633.17-1.72 1.112-.411.49a21.46 21.46 0 001.33 3.242l.64.061 2.004-.42.568-.327 1.38 2.081-.52.397-1.166 1.684-.193.613a21.46 21.46 0 002.473 2.484l.611-.186 1.692-1.158.403-.519 2.07 1.396-.326.565-.434 2.004.056.637a21.46 21.46 0 003.236 1.35l.494-.407 1.118-1.716.174-.632 2.447.494-.088.649.368 2.018.295.567a21.46 21.46 0 001.753.077 21.46 21.46 0 001.757-.067l.296-.567.38-2.013-.082-.651 2.448-.48.168.635 1.11 1.723.49.41a21.46 21.46 0 003.248-1.335l.056-.636-.42-2.005-.324-.568 2.079-1.38.4.52 1.683 1.163.61.194a21.46 21.46 0 002.489-2.473l-.19-.612-1.158-1.692-.515-.4 1.391-2.07.566.326 2.004.432.637-.054a21.46 21.46 0 001.352-3.238l-.409-.49-1.716-1.122-.63-.173.493-2.446.65.086 2.015-.366.567-.295a21.46 21.46 0 00.08-1.753 21.46 21.46 0 00-.067-1.755l-.567-.299-2.015-.376-.65.081-.48-2.45.633-.17 1.723-1.11.41-.49a21.46 21.46 0 00-1.332-3.246l-.637-.057-2.005.42-.57.325-1.38-2.079.52-.4 1.166-1.683.193-.61a21.46 21.46 0 00-2.472-2.487l-.612.188-1.692 1.156-.403.519-2.067-1.396.326-.565.434-2.002-.057-.64a21.46 21.46 0 00-3.235-1.35l-.495.41-1.122 1.714-.17.632-2.446-.494.085-.649-.366-2.016-.297-.569a21.46 21.46 0 00-1.753-.075 21.46 21.46 0 00-.808.01zm.594 19.297a2.157 2.157 0 01.07-.002 2.157 2.157 0 012.236 2.07 2.157 2.157 0 01-2.07 2.239 2.157 2.157 0 01-2.239-2.074 2.157 2.157 0 012.003-2.233z" fill="#dcb957"/><path d="M24.985 17.64a5.731 5.731 0 00-.203.005 5.731 5.731 0 00-5.507 5.945 5.731 5.731 0 005.945 5.51 5.731 5.731 0 005.507-5.948 5.731 5.731 0 00-5.742-5.511zm.05 2.89a2.842 2.842 0 012.807 2.733 2.842 2.842 0 01-2.731 2.95 2.842 2.842 0 01-2.95-2.732 2.842 2.842 0 012.73-2.95 2.842 2.842 0 01.144-.002z" style="mix-blend-mode:darken" opacity=".99" fill="url(#d)"/><path d="M25.037 5.419a17.953 17.953 0 00-.724.014A17.953 17.953 0 007.061 24.059 17.953 17.953 0 0025.69 41.31 17.953 17.953 0 0042.94 22.685 17.953 17.953 0 0025.037 5.42zm.07 4.262a13.691 13.691 0 0113.576 13.167 13.691 13.691 0 01-13.159 14.205 13.691 13.691 0 01-14.205-13.157A13.691 13.691 0 0124.479 9.69a13.691 13.691 0 01.629-.01z" style="mix-blend-mode:darken" opacity=".99" fill="url(#e)"/><path d="M26.645 2.13c-.02 0-.146-.056-.146-.052 0 .004.156.194.213.31l.06.186.208 1.015.156.98-.01.253a6.806 6.806 0 01-.051.332c-.006.026.044.041.071.046.068.013.121-.013.122-.04 0-.016.108-.148.08-.296l.039-.319-.196-.93-.167-1.033-.118-.22c-.104-.205-.189-.245-.219-.245zm7.81 2.237c-.01.003-.004.026.004.062.008.04.015.176.025.307.015.214.008.324-.187 1.22-.195.9-.244 1.026-.35 1.205-.064.11-.128.252-.111.263.204.127.21.029.367-.235.157-.268.182-.286.388-1.235.196-.9.211-1.009.192-1.255-.02-.25-.03-.33-.12-.376a.645.645 0 00-.219-.013zm4.59 2.804c-.012.012-.437-.073-.31.07.127.142 2.19 2.204 2.19 2.231 0 .028-.047.189-.1.349-.114.338-1.175 2.107-1.567 2.16-.305.04.252.31.52.104.303-.235 1.405-1.808 1.498-2.143l.13-.407-.438-.393c-.168-.188-.79-1-.803-.988zm4.76 6.548c-.077 0-.045.07.065.308.394.86.982 2.377 1.056 2.712-.057.119-.311.431-1.186 1.005-.431.283-1.272.64-1.188.752.018.023.588-.007.711-.054.163-.062 1.56-1.008 1.72-1.153.07-.064.161-.202.21-.27l.12-.172-.092-.407c-.154-.466-.643-1.598-.909-2.164-.177-.376-.23-.562-.292-.562zm2.071 7.995c.001.013.085.671.085 1.533 0 .863-.095 1.665-.112 1.728-.024.086-.096.084-.325.19-.168.078-2.126.475-2.163.489-.037.013.303.209.44.195.136-.014 2.081-.456 2.233-.526l.293-.265.041-.6c.018-.312.12-1.04.11-1.614l-.083-1.164-.24-.049c-.06-.047-.31-.176-.298-.078zm-.984 8c.025.035-.055.23-.107.39-.32 1.001-1.19 2.732-1.235 2.833-.045 0-.582.051-.62.075-.05.033.388.198.525.198.476.117.55.173.814-.553.29-.608.79-1.904.924-2.337l.095-.28-.106-.195a1.72 1.72 0 00-.217-.2c-.096-.054-.227-.147-.074.069zm-35.98 2.47s-.125.074-.27.155l-.266.13-.986.219-.997.198-.218-.017c-.116-.011-.297.015-.248.01.031-.035.013.045.022.06l.035.05.244.033.271.028c.007 0 .464-.093 1.002-.206l.978-.175.28-.175.256-.148.004-.043-.043-.107c-.014-.022-.064-.011-.064-.011zm31.795 4.266c0 .018.044.187.08.304l.054.214-.166.23c-.653.67-1.39 1.375-1.99 1.979l-.365.29.248.114c.096.033.38.171.388.17.045-.011.792-.699 1.195-1.1.435-.432.95-.98 1.074-1.144l.054-.071-.147-.45c-.052-.168-.085-.275-.154-.373.038-.184-.154-.464-.285-.291zm-27.143 1.123l-.069.025c-.011.014-.078.108-.158.211l-.163.193-.847.582-.828.564-.275.086c-.147.045-.324.097-.33.1-.007.004.02.112.067.153.039.034.136.07.14.07.107.017.16-.007.293-.048l.275-.115.852-.52.851-.525.194-.325c.187-.242.16-.335.147-.344-.004-.065-.055-.042-.077-.06zm20.478 2.182c-.004.012.095.427.194.897l.157.817-.009.342c-.017.179-.014.302-.017.305-.117.025-.188.077-.374.17-.67.334-1.488.665-2.309.956l-.52.181.221.134c.06.05.13.124.137.124a6.97 6.97 0 001.02-.267c.652-.247 1.556-.704 1.929-.904l.16-.055.084-.325-.03-.312-.192-.937c-.144-.693-.177-1.116-.222-1.207-.033-.066-.25-.097-.254-.085zm-14.194 1.067c-.061-.039.001.11-.054.303-.052.183-.112.244-.623 1.026l-.557.826-.246.222-.24.182-.515-.185c-.546-.194-.891-.32-1.228-.462-.134-.056-1.21-.647-1.197-.449-.025.025 1.996 1.026 2.741 1.292.106.037.368.063.385.064a.86.86 0 00.256-.145c.186-.15.263-.104.8-.927l.522-.876.159-.368c.071-.253.057-.382.032-.398zm7.138.637c-.074.024.02.131.049.272.005.022-.082.51-.187 1.067l-.193.993-.132.301c-.104.201-.134.254-.165.261-.228.051-2.132.092-2.757.052a9.493 9.493 0 01-.415-.037c-.12-.044-.038.122-.02.16.034.062.024.153.178.167.09.008.42-.013.612-.002.718.036 2.429.079 2.638.031.03-.007.097-.137.176-.293l.19-.296.114-.94.181-1-.044-.336c-.027-.221-.045-.356-.064-.356z" fill="url(#f)"/><path d="M19.97 5.37a1.586 1.586 0 01-.052-.24.406.406 0 01.043.124l.065.24c.016.06.024.108.018.108-.007 0-.04-.104-.073-.232z" fill="#faecc9"/><path style="mix-blend-mode:normal" d="M24.255 1.923a21.46 21.46 0 00-.946.056l-.3.565-.378 2.013.081.65-2.447.481-.17-.634-1.11-1.721-.488-.413a21.46 21.46 0 00-3.246 1.332l-.06.64.423 2.004.324.57-2.078 1.38-.4-.52-1.686-1.165-.608-.192A21.46 21.46 0 008.677 9.44l.19.612 1.156 1.692.517.4-1.39 2.072-.569-.328-2.001-.432-.64.054a21.46 21.46 0 00-1.35 3.238l.407.49 1.716 1.122.633.175-.496 2.444-.65-.086-2.015.369-.567.295a21.46 21.46 0 00-.077 1.753 21.46 21.46 0 00.064 1.752l.567.299 2.015.379.652-.082.478 2.448-.633.17-1.72 1.112-.411.49a21.46 21.46 0 001.33 3.242l.64.061 2.004-.42.568-.327 1.38 2.081-.52.397-1.166 1.684-.193.613a21.46 21.46 0 002.473 2.484l.611-.186 1.692-1.158.403-.519 2.07 1.396-.326.565-.434 2.004.056.637a21.46 21.46 0 003.236 1.35l.494-.407 1.118-1.716.174-.632 2.447.494-.088.649.368 2.018.295.567a21.46 21.46 0 001.753.077 21.46 21.46 0 001.757-.067l.296-.567.38-2.013-.082-.651 2.448-.48.168.635 1.11 1.723.49.41a21.46 21.46 0 003.248-1.335l.056-.636-.42-2.005-.324-.568 2.079-1.38.4.52 1.683 1.163.61.194a21.46 21.46 0 002.489-2.473l-.19-.612-1.158-1.692-.515-.4 1.391-2.07.566.326 2.004.432.637-.054a21.46 21.46 0 001.352-3.238l-.409-.49-1.716-1.122-.63-.173.493-2.446.65.086 2.015-.366.567-.295a21.46 21.46 0 00.08-1.753 21.46 21.46 0 00-.067-1.755l-.567-.299-2.015-.376-.65.081-.48-2.45.633-.17 1.723-1.11.41-.49a21.46 21.46 0 00-1.332-3.246l-.637-.057-2.005.42-.57.325-1.38-2.079.52-.4 1.166-1.683.193-.61a21.46 21.46 0 00-2.472-2.487l-.612.188-1.692 1.156-.403.519-2.067-1.396.326-.565.434-2.002-.057-.64a21.46 21.46 0 00-3.235-1.35l-.495.41-1.122 1.714-.17.632-2.446-.494.085-.649-.366-2.016-.297-.569a21.46 21.46 0 00-1.753-.075 21.46 21.46 0 00-.808.01zm.594 19.297a2.157 2.157 0 01.07-.002 2.157 2.157 0 012.236 2.07 2.157 2.157 0 01-2.07 2.239 2.157 2.157 0 01-2.239-2.074 2.157 2.157 0 012.003-2.233z" fill="url(#g)"/><g fill="none"><circle transform="rotate(-2.193)" r="18.23" cy="24.311" cx="24.089" opacity=".99" stroke="#4e3010"/><path d="M25.064 1.91a21.46 21.46 0 00-1.754.068l-.3.567-.378 2.014.082.649-2.449.48-.169-.634-1.11-1.721-.49-.412a21.46 21.46 0 00-3.245 1.333l-.06.637.423 2.006.323.568-2.078 1.381-.399-.52-1.685-1.166-.609-.192A21.46 21.46 0 008.678 9.44l.189.611 1.156 1.692.517.402-1.392 2.07-.567-.327-2.003-.433-.637.055a21.46 21.46 0 00-1.352 3.238l.408.492 1.716 1.12.632.174-.494 2.445-.65-.085-2.016.367-.567.295a21.46 21.46 0 00-.077 1.753 21.46 21.46 0 00.066 1.754l.566.299 2.014.378.65-.082.48 2.449-.633.169-1.722 1.111-.41.49a21.46 21.46 0 001.331 3.244l.638.06 2.005-.421.57-.324 1.38 2.078-.52.399-1.166 1.685-.193.61a21.46 21.46 0 002.473 2.487l.612-.189 1.691-1.156.402-.518 2.07 1.393-.327.566-.433 2.004.055.637a21.46 21.46 0 003.238 1.35l.492-.407 1.12-1.716.173-.631 2.445.493-.085.65.367 2.016.295.567a21.46 21.46 0 001.754.078 21.46 21.46 0 001.754-.067l.299-.567.378-2.014-.082-.65 2.45-.479.168.632 1.11 1.723.49.41a21.46 21.46 0 003.245-1.332l.06-.636-.421-2.006-.325-.568 2.078-1.381.399.52 1.685 1.166.61.192a21.46 21.46 0 002.488-2.472l-.19-.611L39.98 35l-.517-.402 1.392-2.07.567.327 2.003.432.637-.055a21.46 21.46 0 001.352-3.237l-.408-.492-1.716-1.12-.632-.174.494-2.445.65.085 2.016-.367.567-.295a21.46 21.46 0 00.077-1.753 21.46 21.46 0 00-.066-1.754l-.566-.299-2.014-.378-.65.082-.48-2.449.633-.17 1.722-1.11.41-.49a21.46 21.46 0 00-1.332-3.245l-.637-.06-2.005.422-.57.324-1.38-2.078.52-.399 1.166-1.685.193-.61a21.46 21.46 0 00-2.473-2.487l-.611.189-1.692 1.156-.402.518-2.07-1.393.328-.566.432-2.004-.055-.637a21.46 21.46 0 00-3.237-1.352l-.493.41-1.12 1.714-.172.632-2.446-.494.085-.648-.366-2.017-.297-.568a21.46 21.46 0 00-1.752-.077z" style="font-variation-settings:normal" stroke="#4e3010"/><circle transform="rotate(-2.193)" cx="24.089" cy="24.311" r="2.157" opacity=".99" stroke="#4f3111"/><circle transform="rotate(-2.193)" r="2.842" cy="24.311" cx="24.089" opacity=".99" stroke="#9c6733" stroke-width=".123"/><circle transform="rotate(-2.193)" r="5.731" cy="24.311" cx="24.089" opacity=".99" stroke="#6c4318" stroke-width=".501"/><circle transform="rotate(-2.193)" cx="24.089" cy="24.311" r="13.573" opacity=".99" stroke="#6b4217" stroke-width=".502"/></g><g><g transform="matrix(4.21143 0 0 4.17869 -4.974 -.682)" style="mix-blend-mode:normal" fill="#9af3b7" stroke-width=".053" filter="url(#h)"><path d="M7.201 6.868c-.17.002.032.087.255.122.061-.049.117-.097.167-.144-.139.034-.28.034-.422.022M8.116 6.64a1.08 1.08 0 00.202-.453c-.023.113-.084.21-.142.314-.319.2-.03-.12 0-.24-.343.43-.048.258-.06.379M8.454 5.76c.02-.306-.06-.21-.088-.092.032.016.057.216.088.093M6.554 1.565c.091.016.197.028.182.05.1-.022.122-.042-.182-.05M6.736 1.615l-.064.013.06-.005.004-.008"/><path fill="#7ceea0" d="M9.573 5.877c.01.276-.08.41-.162.646l-.148.074c-.12.234.012.149-.074.335-.189.167-.571.523-.694.556-.09-.002.06-.106.08-.146-.252.173-.202.26-.587.365l-.011-.025c-.95.447-2.271-.44-2.254-1.648-.01.077-.029.057-.05.088-.049-.622.288-1.246.855-1.502.555-.274 1.205-.162 1.602.209-.218-.286-.652-.59-1.167-.561-.504.008-.976.329-1.134.677-.258.162-.288.627-.4.712-.152 1.113.284 1.594 1.023 2.16.116.078.032.09.048.15a2.003 2.003 0 01-.655-.5c.098.143.204.282.34.392-.23-.078-.54-.56-.63-.58.399.714 1.618 1.252 2.256.985-.295.01-.67.006-1.002-.117-.14-.072-.33-.22-.295-.248.87.325 1.77.246 2.524-.358.192-.15.402-.403.462-.407-.091.137.016.066-.054.187.19-.308-.083-.125.197-.532l.104.143c-.04-.256.317-.567.281-.971.082-.124.091.133.005.417.12-.315.031-.366.062-.627.033.088.078.181.1.274-.078-.306.08-.514.12-.692-.04-.017-.121.135-.14-.225.003-.157.043-.082.06-.12-.032-.018-.112-.138-.161-.368.035-.055.095.14.143.148-.03-.183-.084-.323-.087-.463-.141-.296-.05.04-.164-.127-.151-.47.124-.109.143-.322.228.33.358.842.418 1.055a4.318 4.318 0 00-.21-.752c.07.03-.111-.532.091-.16-.216-.793-.922-1.533-1.571-1.88.079.072.18.163.143.178-.323-.192-.266-.208-.312-.289-.263-.107-.281.009-.455 0-.496-.263-.592-.235-1.049-.4l.021.097c-.328-.11-.383.042-.738 0-.022-.016.114-.06.225-.077-.317.042-.303-.062-.614.012.077-.054.158-.09.24-.135-.26.016-.619.15-.508.028-.423.188-1.173.453-1.595.848l-.013-.088c-.193.231-.842.692-.893.992l-.052.012c-.1.17-.166.363-.245.538-.132.224-.193.086-.174.121-.259.524-.387.964-.498 1.326.08.118.002.71.032 1.185-.13 2.344 1.645 4.62 3.585 5.145.284.101.707.098 1.066.108-.424-.122-.479-.064-.892-.208-.298-.141-.364-.301-.575-.485l.084.148c-.414-.147-.241-.181-.578-.288l.09-.116c-.135-.01-.356-.227-.417-.346l-.147.005c-.176-.217-.27-.374-.263-.496l-.048.085c-.054-.093-.65-.817-.34-.648-.058-.053-.134-.086-.217-.236l.063-.072c-.148-.191-.273-.436-.264-.518.08.107.135.127.19.145-.376-.93-.398-.05-.682-.948l.06-.004c-.046-.07-.074-.145-.11-.22l.025-.26c-.27-.312-.075-1.329-.036-1.886.027-.226.226-.468.377-.846L3.23 4.51c.175-.307 1.004-1.232 1.388-1.185.185-.233-.037 0-.074-.06.409-.422.537-.298.812-.374.297-.176-.255.07-.114-.067.514-.13.364-.298 1.034-.365.07.04-.164.063-.223.115.428-.21 1.354-.162 1.956.116.698.326 1.483 1.29 1.514 2.198l.035.01c-.018.36.055.777-.071 1.16l.085-.181"/><path d="M5.34 7.101l-.024.12c.112.152.201.317.344.436-.103-.2-.18-.284-.32-.556M5.605 7.091c-.06-.066-.094-.144-.134-.223.038.138.115.257.187.378l-.053-.155M10.292 6.072l-.025.063a3.031 3.031 0 01-.297.948c.168-.315.276-.66.322-1.01M6.588 1.483c.115-.042.283-.023.406-.051-.16.013-.318.021-.475.041l.07.01M2.541 3.635c.027.245-.184.34.047.179.125-.28-.048-.078-.047-.18M2.269 4.773c.054-.164.063-.263.084-.358-.148.189-.068.23-.084.358"/></g><path style="mix-blend-mode:normal" d="M24.575 4.065a.27.27 0 00-.024 0c-.69.058-1.387.093-2.085.182a.27.27 0 00-.042.527.27.27 0 00-.035.19c-.2-.01-.357-.039-.53-.066-.054-.008-.114-.014-.172-.021a.27.27 0 00-.169-.493c-.605.037-1.288.206-1.748.292-.106.02-.118.016-.193.024a.27.27 0 00-.37-.172c-1.714.766-4.723 1.833-6.668 3.449a.27.27 0 00-.451-.056c-.383.459-1.31 1.229-2.16 2.03-.788.743-1.533 1.492-1.752 2.25l-.069.016a.27.27 0 00-.172.126c-.454.77-.74 1.615-1.076 2.357-.13.219-.237.338-.302.39-.057.046-.06.037-.056.036l-.006-.005c-.006-.005-.014-.012-.036-.025a.829.829 0 00-.054-.023l-.145-.004-.18.148-.02.103c-1.112 2.272-1.676 4.19-2.153 5.745a.27.27 0 00.034.23c.017.025.085.267.103.6.019.332.013.764.001 1.247-.025.962-.076 2.126-.011 3.18-.566 10.374 7.236 20.39 15.852 22.724l-.02-.006c1.323.474 3.178.445 4.74.488a.27.27 0 00.082-.53c-.94-.269-1.485-.343-1.998-.425a9.64 9.64 0 01-1.87-.476 4.314 4.314 0 01-1.308-.926c-.336-.34-.647-.724-1.127-1.141a.27.27 0 00-.425.312 2.691 2.691 0 01-.606-.368c-.176-.14-.39-.3-.865-.482l.165-.215a.27.27 0 00-.194-.434c-.16-.012-.544-.22-.87-.509-.328-.288-.624-.652-.726-.854a.27.27 0 00-.252-.148l-.5.02c-.698-.878-1.032-1.512-1.012-1.876a.27.27 0 00-.505-.148l-.002.002c-.092-.125-.144-.204-.274-.378a32.9 32.9 0 01-.81-1.117 7.076 7.076 0 01-.349-.566.27.27 0 00.16-.469c-.266-.242-.504-.35-.79-.804l.14-.16a.27.27 0 00.01-.344 8.378 8.378 0 01-.808-1.268l-.004-.01c.066.03.128.053.184.072a.27.27 0 00.337-.357c-.416-1.031-.734-1.578-1.036-1.897a1.25 1.25 0 00-.824-.397c-.195-.02-.233.01-.397-.19-.143-.174-.348-.58-.602-1.325a.27.27 0 00.124-.4c-.167-.251-.284-.543-.435-.854l.107-1.064a.27.27 0 00-.064-.204c-.474-.547-.606-1.958-.52-3.524.084-1.561.337-3.266.425-4.502.101-.857.952-1.935 1.626-3.627a.27.27 0 00-.195-.365c.472-.69 1.395-1.8 2.42-2.774.596-.568 1.219-1.086 1.782-1.441.563-.356 1.067-.53 1.368-.493a.27.27 0 00.245-.1c.103-.129.178-.227.233-.303.056-.077.09-.117.122-.201a.293.293 0 00.022-.089.28.28 0 00-.05-.192c-.013-.018-.032-.027-.048-.04.527-.453.91-.636 1.25-.727.46-.122.91-.072 1.558-.251a.27.27 0 00.066-.028c.166-.099.274-.168.352-.227.039-.03.07-.05.113-.112.022-.03.058-.077.056-.177 0-.038-.021-.076-.041-.112.44-.198.74-.398 1.024-.569.284-.17.61-.32 1.132-.447a.27.27 0 00.388.267c.857-.42 2.308-.605 3.851-.518 1.544.088 3.186.44 4.458 1.027 1.466.686 3.06 2.069 4.29 3.762 1.231 1.693 2.096 3.694 2.162 5.6a.27.27 0 00.153.235c-.047 1.564.204 3.263-.298 4.782a.27.27 0 00.25.355c-.121.5-.326.96-.544 1.566l-.55.273a.27.27 0 00-.12.118c-.137.268-.21.455-.243.614a.903.903 0 00.002.381c.02.084.027.096.023.144a1.08 1.08 0 01-.093.288c-.414.368-1.006.91-1.57 1.389-.224.189-.425.345-.62.494a.27.27 0 00-.415-.156c-.574.395-.819.7-1.085.924-.243.203-.542.375-1.207.573a.27.27 0 00-.285-.035c-3.938 1.853-9.527-1.866-9.454-6.946a.27.27 0 00-.233-.272c.049-2.387 1.416-4.68 3.588-5.659a.27.27 0 00.009-.004c2.32-1.149 5.046-.67 6.692.866a.27.27 0 00.4-.361c-1.001-1.312-2.963-2.682-5.322-2.556-2.278.04-4.372 1.426-5.147 3.042-.615.421-.93 1.137-1.162 1.772-.12.329-.219.64-.313.88-.093.24-.2.4-.233.425a.27.27 0 00-.105.18c-.284 2.086-.097 3.701.465 5.055a.27.27 0 00-.27.341c.15.552.426 1.015.693 1.461-.003 0-.005-.002-.008-.003a.27.27 0 00-.311.171 16.638 16.638 0 01-.446-.805.27.27 0 00-.505.07l-.105.522a.27.27 0 00.048.214c.475.645.87 1.39 1.547 1.951a.27.27 0 00.413-.331c-.064-.126-.123-.225-.184-.334.99 1.17 2.407 2.152 3.91 2.81 1.94.85 4.02 1.178 5.53.546a.27.27 0 00-.113-.52c-1.274.048-2.872.021-4.257-.486a4.795 4.795 0 01-.377-.222c3.526.992 7.127.474 10.168-1.963.44-.343.882-.789 1.246-1.147l.107-.101a.27.27 0 00.49.217c.216-.35.316-.578.35-.778.033-.2-.018-.354-.033-.422-.015-.069-.026-.09.033-.248.041-.11.148-.302.295-.538l.22.302a.27.27 0 00.486-.2c-.064-.42.233-1.009.585-1.715.073-.146.145-.302.216-.459a.27.27 0 00.432-.105c.273-.714.316-1.171.301-1.565a.677.677 0 00-.002-.038l.42-.105c-.314-1.22.329-2.012.524-2.892a.27.27 0 00-.155-.307.37.37 0 00-.258-.01c-.04.012-.061.023-.085.034-.004-.013-.004-.01-.012-.03-.036-.122-.074-.36-.094-.733.002-.128.013-.192.021-.23.082-.036.183-.106.217-.192a.27.27 0 00-.115-.336c.037.021-.008-.007-.052-.067a1.92 1.92 0 01-.16-.274c-.016-.032-.033-.084-.05-.12l.01.002a.27.27 0 00.31-.312c-.14-.827-.367-1.433-.376-1.98a.27.27 0 00-.026-.112c-.158-.33-.229-.48-.358-.606a.337.337 0 00-.146-.09.342.342 0 00-.24.03c-.092-.32-.13-.52-.134-.61.08.019.19.046.353.024a.528.528 0 00.191-.073c.813 1.375 1.32 3.3 1.562 4.16a.27.27 0 00.526-.12 18.909 18.909 0 00-.868-3.163.45.45 0 00.022-.086c.02-.107.011-.194.001-.296-.004-.043-.012-.087-.018-.132a.27.27 0 00.338-.33c-.969-3.563-4.088-6.823-6.994-8.377a.27.27 0 00-.356.094c-.017-.017-.062-.049-.074-.063a.416.416 0 01-.084-.145c-.023-.057-.053-.15-.117-.263a.27.27 0 00-.133-.116c-.608-.248-1.005-.247-1.305-.173-.282.07-.436.155-.72.152-2.126-1.12-2.596-1.025-4.549-1.73a.27.27 0 00-.357.307 2.922 2.922 0 00-1.06-.035.337.337 0 00-.051-.279c-.049-.057-.088-.074-.12-.088a.67.67 0 00-.175-.05c.32-.019.668-.034.987-.107a.27.27 0 00-.059-.534zM5.129 13.736a.27.27 0 00-.262.291c.034.439-.128.726-.205.853l-.027.044a.423.423 0 00-.015.028c-.007.013-.017.02-.029.082-.005.031-.021.09.03.182.05.092.183.141.244.14.121-.003.121-.03.137-.04.033-.02.042-.028.059-.04.067-.052.187-.15.43-.32a.27.27 0 00.092-.111c.134-.301.2-.477.217-.645a.38.38 0 00-.072-.292.364.364 0 00-.283-.127.622.622 0 00-.136.017.27.27 0 00-.18-.062zm-.822 3.356a.27.27 0 00-.213.103c-.342.438-.453.766-.456 1.043-.003.277.063.43.036.652a.27.27 0 00.525.116c.24-.737.287-1.193.372-1.587a.27.27 0 00-.264-.327zm26.521 4.977a.352.352 0 00-.261.126.737.737 0 00-.117.168c-.064.119-.113.258-.148.406a.27.27 0 00.081.261.746.746 0 01.029.067c.027.072.058.17.094.263a.894.894 0 00.066.142c.03.05.06.137.22.173.08.018.18-.008.237-.047a.33.33 0 00.103-.115.738.738 0 00.078-.212.27.27 0 00.007-.047c.024-.346.021-.582-.007-.76a.655.655 0 00-.078-.246c-.047-.08-.168-.182-.304-.179zm8.148 2.259a.27.27 0 00-.252.17l-.109.275a.27.27 0 00-.016.062 12.969 12.969 0 01-1.271 4.055.27.27 0 00.48.249 13.315 13.315 0 001.435-4.506.27.27 0 00-.267-.305zm-8.625.503a.27.27 0 00-.262.215c-.022.106-.053.21-.092.315a.27.27 0 00-.476-.111c-.38.479-.59.792-.699 1.037a.792.792 0 00-.085.352c.004.119.066.248.147.32.144.125.26.134.32.146a.27.27 0 00.486.128c.464-.638.807-1.344.93-2.09a.27.27 0 00-.27-.312zm-3.034 2.874a.27.27 0 00-.062.007c-.564.138-1.149.143-1.753.088a.27.27 0 00-.028 0 1.135 1.135 0 00-.268.027.411.411 0 00-.135.058.323.323 0 00-.136.205.317.317 0 00.052.23.4.4 0 00.095.097.964.964 0 00.197.112c.293.133.763.262 1.27.34a.27.27 0 00.207-.054c.277-.216.526-.433.749-.645a.27.27 0 00-.188-.466zm-8.342 1.872c.736.947 1.698 1.783 2.804 2.644a8.698 8.698 0 01-2.018-1.714.27.27 0 00-.418.013c-.135-.156-.281-.326-.399-.454-.034-.038-.064-.063-.097-.097a.27.27 0 00.147-.334z" fill="#a80030"/></g></svg>