<svg xmlns="http://www.w3.org/2000/svg" xmlns:xlink="http://www.w3.org/1999/xlink" height="1024" width="800"><defs><linearGradient id="a"><stop offset="0" stop-color="#7d4f1f"/><stop offset="1" stop-color="#e38b22" stop-opacity=".933"/></linearGradient><linearGradient id="b"><stop offset="0" stop-color="#fff" stop-opacity="0"/><stop offset=".409" stop-color="#fff" stop-opacity=".7"/><stop offset="1" stop-color="#fff" stop-opacity="0"/></linearGradient><linearGradient xlink:href="#a" id="g" x1="221.081" y1="249.278" x2="84.566" y2="112.762" gradientUnits="userSpaceOnUse" gradientTransform="matrix(3.89295 0 0 3.89295 -30.887 -151.995)"/><linearGradient xlink:href="#b" id="h" x1="62.779" y1="67.596" x2="144.042" y2="148.859" gradientUnits="userSpaceOnUse" gradientTransform="matrix(3.89295 0 0 3.89295 -30.887 -151.995)"/><filter id="i" x="-.004" width="1.008" y="-.003" height="1.006" color-interpolation-filters="sRGB"><feGaussianBlur stdDeviation=".014"/></filter><filter id="d" x="-.003" width="1.006" y="-.003" height="1.006" color-interpolation-filters="sRGB"><feGaussianBlur stdDeviation=".055"/></filter><filter id="c" color-interpolation-filters="sRGB"><feFlood result="flood" flood-color="#000" flood-opacity=".498"/><feComposite result="composite1" operator="in" in2="SourceGraphic" in="flood"/><feGaussianBlur result="blur" stdDeviation=".5" in="composite1"/><feOffset result="offset" dy=".6" dx=".6"/><feComposite result="composite2" in2="offset" in="SourceGraphic"/></filter><radialGradient gradientUnits="userSpaceOnUse" gradientTransform="rotate(-45 368.73 634.535) scale(23.05569 21.78239)" r="5.613" fy="22.566" fx="25.078" cy="22.566" cx="25.078" id="e" xlink:href="#a"/><radialGradient gradientUnits="userSpaceOnUse" gradientTransform="matrix(22.39122 -22.39123 10.59643 10.59643 -385.808 686.077)" r="17.435" fy="22.703" fx="24.365" cy="22.703" cx="24.365" id="f" xlink:href="#a"/></defs><text transform="matrix(4.83363 0 0 4.83363 -88.262 -340.39)" y="268.774" x="99.977" style="line-height:1.25;-inkscape-font-specification:Quicksand" font-weight="400" font-size="41.474" font-family="Quicksand" letter-spacing="-2.511" stroke-width="1.037" filter="url(#c)"><tspan style="-inkscape-font-specification:Quicksand;text-align:center" y="268.774" x="98.721" text-anchor="middle">DebOps</tspan></text><path d="M24.064-.17c-.282-.002-.554.007-.826.016a.532.532 0 00-.008 0c-.327.012-.653.032-.974.058a.532.532 0 00-.428.28l-.295.562A.532.532 0 0021.48.9l-.382 2.024a.532.532 0 000 .162l.013.154-1.474.295-.037-.154a.532.532 0 00-.067-.154l-1.115-1.729a.532.532 0 00-.111-.117l-.494-.414a.532.532 0 00-.502-.104 22.073 22.073 0 00-3.336 1.373.532.532 0 00-.29.422l-.058.64a.532.532 0 00.016.165l.427 2.014a.532.532 0 00.051.156l.082.133-1.262.841-.097-.132a.532.532 0 00-.117-.112l-1.692-1.166a.532.532 0 00-.139-.074l-.613-.191a.532.532 0 00-.502.103c-.92.775-1.78 1.616-2.562 2.531a.532.532 0 00-.104.51l.194.613a.532.532 0 00.066.14l1.158 1.698a.532.532 0 00.112.118l.132.095-.841 1.256-.141-.082a.532.532 0 00-.154-.05l-2.008-.436a.532.532 0 00-.156-.016l-.641.053a.532.532 0 00-.43.287 22.075 22.075 0 00-1.386 3.33.532.532 0 00.095.502l.406.494a.532.532 0 00.125.104l1.721 1.12a.532.532 0 00.147.067l.156.045-.297 1.484-.162-.015a.532.532 0 00-.162 0l-2.022.369a.532.532 0 00-.148.05l-.568.298a.532.532 0 00-.288.427 22.035 22.035 0 00-.015 3.602.532.532 0 00.281.428l.568.302a.532.532 0 00.155.053l2.023.377a.532.532 0 00.162 0l.155-.016.289 1.485-.157.037a.532.532 0 00-.146.072l-1.72 1.115a.532.532 0 00-.12.096l-.412.488a.532.532 0 00-.104.51 22.133 22.133 0 001.373 3.336.532.532 0 00.42.287l.635.06a.532.532 0 00.164-.007l2.014-.422a.532.532 0 00.156-.058l.133-.08.834 1.253-.125.096a.532.532 0 00-.111.12L7.3 34.85a.532.532 0 00-.074.14l-.192.614a.532.532 0 00.104.501c.775.919 1.623 1.78 2.539 2.561a.532.532 0 00.502.104l.613-.184a.532.532 0 00.146-.074l1.7-1.166a.532.532 0 00.117-.104l.096-.133 1.255.842-.082.139a.532.532 0 00-.05.156l-.436 2.016a.532.532 0 00-.016.154l.053.635a.532.532 0 00.287.428 22.135 22.135 0 003.33 1.394.532.532 0 00.502-.102l.494-.414a.532.532 0 00.104-.119l1.121-1.718a.532.532 0 00.066-.149l.045-.154 1.477.295-.016.154a.532.532 0 000 .17l.37 2.031a.532.532 0 00.052.147l.295.568a.532.532 0 00.428.29c.602.05 1.21.071 1.808.073.602.002 1.2-.018 1.801-.066a.532.532 0 00.428-.281l.303-.569a.532.532 0 00.052-.156l.377-2.014a.532.532 0 00.006-.162l-.021-.164 1.484-.287.037.154a.532.532 0 00.067.149l1.107 1.726a.532.532 0 00.11.12l.494.412a.532.532 0 00.502.103 22.058 22.058 0 003.337-1.373.532.532 0 00.288-.42l.058-.642a.532.532 0 00-.006-.162l-.422-2.008a.532.532 0 00-.058-.155l-.082-.132 1.256-.836.095.127a.532.532 0 00.12.109l1.689 1.168a.532.532 0 00.14.072l.614.194a.532.532 0 00.502-.104 22.057 22.057 0 002.56-2.539.532.532 0 00.104-.51l-.192-.613a.532.532 0 00-.066-.14l-1.16-1.698a.532.532 0 00-.117-.117l-.125-.098.841-1.254.14.08a.532.532 0 00.155.06l2.008.429a.532.532 0 00.155.013l.642-.05a.532.532 0 00.428-.288 22.1 22.1 0 001.394-3.33.532.532 0 00-.101-.502l-.414-.494a.532.532 0 00-.12-.103l-1.718-1.123a.532.532 0 00-.149-.073l-.154-.037.295-1.484.162.021a.532.532 0 00.17 0l2.016-.369a.532.532 0 00.146-.05l.57-.295a.532.532 0 00.288-.428 22.08 22.08 0 00.013-3.611.532.532 0 00-.287-.428l-.568-.295a.532.532 0 00-.149-.053l-2.021-.375a.532.532 0 00-.162 0l-.156.014-.288-1.483.155-.037a.532.532 0 00.148-.066l1.727-1.115a.532.532 0 00.119-.112l.412-.494a.532.532 0 00.103-.502 22.07 22.07 0 00-1.373-3.336.532.532 0 00-.427-.289l-.643-.05a.532.532 0 00-.154.007l-2.008.42a.532.532 0 00-.148.059l-.147.082-.834-1.262.125-.098a.532.532 0 00.111-.117l1.174-1.691a.532.532 0 00.073-.139l.193-.613a.532.532 0 00-.104-.502 22.095 22.095 0 00-2.539-2.563.532.532 0 00-.51-.101l-.613.191a.532.532 0 00-.14.067l-1.698 1.158a.532.532 0 00-.119.119l-.101.125-1.248-.842.08-.14a.532.532 0 00.06-.155l.436-2.008a.532.532 0 00.013-.162l-.058-.642a.532.532 0 00-.287-.422 22.1 22.1 0 00-3.33-1.387.532.532 0 00-.502.096l-.494.406a.532.532 0 00-.104.125l-1.123 1.72a.532.532 0 00-.072.147l-.037.157-1.477-.295.014-.157a.532.532 0 000-.17L26.64.917a.532.532 0 00-.05-.148l-.295-.569a.532.532 0 00-.43-.287c-.595-.05-1.196-.08-1.8-.082zm-.02 20.56a1.499 1.499 0 011.454 1.442 1.499 1.499 0 01-1.441 1.555 1.499 1.499 0 01-1.555-1.44 1.499 1.499 0 011.441-1.554 1.499 1.499 0 01.102-.002z" transform="matrix(16.57273 0 0 16.57273 .098 11.31)" fill="#7ceea0" filter="url(#d)"/><path d="M385.714 25.348a348.914 348.914 0 00-15.385.92l-4.861 9.18-6.163 32.728 1.322 10.56-39.791 7.838-2.745-10.322-18.07-27.981-7.93-6.709a348.914 348.914 0 00-52.772 21.662l-.96 10.39 6.864 32.596 5.275 9.27-33.798 22.441-6.492-8.452-27.416-18.96-9.885-3.109a348.914 348.914 0 00-40.462 40.172l3.097 9.94 18.786 27.514 8.4 6.507-22.61 33.688-9.237-5.337-32.54-7.015-10.393.876a348.914 348.914 0 00-21.958 52.643l6.62 7.97 27.903 18.243 10.278 2.838-8.06 39.738-10.554-1.394-32.776 5.99-9.215 4.796a348.914 348.914 0 00-1.258 28.501 348.914 348.914 0 001.054 28.486l9.217 4.86 32.764 6.162 10.597-1.324 7.765 39.794-10.284 2.78-27.981 18.07-6.67 7.965a348.914 348.914 0 0021.622 52.7l10.391.998L130 526.732l9.233-5.31 22.442 33.835-8.454 6.455-18.96 27.38-3.144 9.96a348.914 348.914 0 0040.206 40.387l9.944-3.024 27.512-18.823 6.542-8.437 33.654 22.685-5.302 9.198-7.05 32.578.91 10.355a348.914 348.914 0 0052.607 21.96l8.044-6.624 18.17-27.9 2.837-10.278 39.774 8.023-1.432 10.554 5.993 32.813 4.795 9.215a348.914 348.914 0 0028.501 1.26 348.914 348.914 0 0028.558-1.094l4.824-9.216 6.163-32.727-1.324-10.597 39.793-7.801 2.744 10.321 18.035 28.02 7.965 6.67a348.914 348.914 0 0052.808-21.7l.925-10.353-6.829-32.597-5.273-9.233 33.798-22.44 6.492 8.452 27.378 18.923 9.923 3.145a348.914 348.914 0 0040.461-40.209l-3.097-9.94-18.822-27.512-8.363-6.509 22.612-33.65 9.198 5.3 32.576 7.014 10.356-.874a348.914 348.914 0 0021.995-52.645l-6.656-7.969-27.904-18.243-10.24-2.802 8.023-39.774 10.553 1.395 32.778-5.954 9.215-4.796a348.914 348.914 0 001.294-28.502 348.914 348.914 0 00-1.092-28.522l-9.217-4.86-32.763-6.125-10.56 1.322-7.803-39.829 10.284-2.78 28.02-18.034 6.67-7.966a348.914 348.914 0 00-21.662-52.772l-10.352-.925-32.597 6.829-9.27 5.274-22.441-33.798 8.452-6.492 18.96-27.38 3.145-9.922a348.914 348.914 0 00-40.207-40.425l-9.942 3.061-27.513 18.786-6.543 8.438-33.617-22.687 5.302-9.198 7.051-32.54-.912-10.393a348.914 348.914 0 00-52.606-21.96l-8.043 6.66-18.244 27.867L476.517 87l-39.774-8.023 1.395-10.553-5.954-32.778-4.834-9.25a348.914 348.914 0 00-28.5-1.222 348.914 348.914 0 00-13.136.173zm9.663 313.75a35.062 35.062 0 011.137-.043 35.062 35.062 0 0136.35 33.67 35.062 35.062 0 01-33.668 36.386 35.062 35.062 0 01-36.389-33.704 35.062 35.062 0 0132.57-36.309z" fill="#dcb957"/><path d="M397.585 280.899a93.184 93.184 0 00-3.307.065 93.184 93.184 0 00-89.537 96.668 93.184 93.184 0 0096.669 89.57 93.184 93.184 0 0089.537-96.702 93.184 93.184 0 00-93.362-89.601zm.81 46.972a46.212 46.212 0 0145.644 44.445 46.212 46.212 0 01-44.412 47.945 46.212 46.212 0 01-47.945-44.412 46.212 46.212 0 0144.379-47.945 46.212 46.212 0 012.334-.037z" style="mix-blend-mode:darken" opacity=".99" fill="url(#e)"/><path d="M398.427 84.709a289.365 289.365 0 00-11.67.227 289.365 289.365 0 00-278.076 300.217 289.365 289.365 0 00300.25 278.076 289.365 289.365 0 00278.075-300.217A289.365 289.365 0 00398.427 84.709zm1.135 68.692A220.681 220.681 0 01618.38 365.638 220.681 220.681 0 01406.272 594.6 220.681 220.681 0 01177.31 382.527a220.681 220.681 0 01212.106-228.964 220.681 220.681 0 0110.147-.162z" style="mix-blend-mode:darken" opacity=".99" fill="url(#f)"/><path d="M424.57 28.73c-.32-.001-2.37-.927-2.37-.857 0 .07 2.535 3.159 3.458 5.05l.993 3.01 3.367 16.514 2.538 15.934-.173 4.111c-.303 2.389-.75 5.077-.819 5.388-.093.43.712.672 1.158.757 1.099.212 1.97-.215 1.98-.668.004-.25 1.76-2.396 1.304-4.801l.631-5.183-3.19-15.11-2.704-16.805-1.927-3.588c-1.685-3.32-3.065-3.977-3.555-3.98zm126.982 36.36c-.163.051-.052.425.066 1.004.134.653.252 2.858.408 4.998.253 3.473.137 5.257-3.034 19.846-3.177 14.618-3.977 16.672-5.69 19.576-1.054 1.786-2.091 4.101-1.81 4.277 3.31 2.064 3.424.467 5.96-3.827 2.568-4.346 2.971-4.64 6.324-20.075 3.177-14.632 3.427-16.396 3.112-20.398-.32-4.08-.497-5.371-1.946-6.12-.742-.384-3.395-.261-3.56-.21zm74.622 45.591c-.195.2-7.1-1.189-5.034 1.13 2.066 2.317 35.618 35.835 35.618 36.281 0 .446-.779 3.068-1.651 5.67-1.846 5.503-19.094 34.264-25.464 35.105-4.955.654 4.1 5.065 8.447 1.7 4.933-3.818 22.852-29.395 24.366-34.833l2.099-6.617-7.106-6.388c-2.736-3.056-12.856-16.27-13.055-16.07zm77.379 106.458c-1.244 0-.71 1.124 1.07 5.01 6.4 13.975 15.965 38.645 17.174 44.095-.925 1.929-5.066 7.01-19.288 16.339-7.01 4.597-20.674 10.412-19.31 12.215.293.387 9.55-.103 11.558-.866 2.649-1.006 25.358-16.397 27.95-18.753 1.146-1.041 2.634-3.276 3.435-4.39l1.95-2.797-1.495-6.607c-2.506-7.59-10.456-25.994-14.778-35.185-2.878-6.12-3.748-9.14-4.75-9.14zm33.69 129.993c.022.205 1.377 10.905 1.371 24.924-.003 14.02-1.531 27.068-1.814 28.093-.384 1.395-1.557 1.354-5.28 3.086-2.737 1.274-34.57 7.726-35.174 7.944-.605.218 4.93 3.399 7.148 3.17 2.219-.229 33.843-7.414 36.32-8.55l4.759-4.304.668-9.761c.296-5.071 1.938-16.913 1.779-26.238l-1.34-18.925-3.893-.787c-.997-.766-5.038-2.876-4.85-1.279zm-16.01 130.06c.407.57-.892 3.728-1.73 6.357-5.194 16.267-19.337 44.397-20.077 46.052-.735.003-9.472.83-10.078 1.22-.808.523 6.298 3.205 8.524 3.214 7.74 1.898 8.961 2.804 13.241-8.994 4.709-9.884 12.829-30.948 15.026-37.989l1.544-4.567-1.725-3.168c-1.031-1.098-2.919-2.906-3.529-3.25-1.553-.874-3.698-2.387-1.196 1.125zm-584.975 40.175s-2.03 1.182-4.38 2.512l-4.335 2.102-16.033 3.56-16.199 3.218-3.55-.277c-1.892-.17-4.837.254-4.028.183.504-.583.209.732.347.978l.57.792 3.974.553c2.173.205 4.293.444 4.404.45.112.003 7.547-1.515 16.286-3.35l15.9-2.85 4.547-2.847a420.503 420.503 0 004.182-2.4l.054-.696-.694-1.745c-.234-.351-1.045-.183-1.045-.183zM653.2 586.708c.003.29.706 3.049 1.307 4.942l.875 3.483-2.697 3.743c-10.624 10.9-22.606 22.358-32.364 32.164l-5.927 4.734 4.032 1.84c1.553.536 6.178 2.79 6.312 2.757.73-.182 12.877-11.356 19.418-17.862 7.084-7.045 15.436-15.944 17.473-18.607l.875-1.167-2.393-7.295c-.842-2.746-1.39-4.486-2.51-6.076.622-2.996-2.497-7.547-4.632-4.741zm-441.302 18.255l-1.12.407c-.192.236-1.269 1.757-2.575 3.439l-2.65 3.143-13.774 9.453-13.453 9.175-4.471 1.397c-2.39.73-5.27 1.572-5.362 1.623-.116.065.305 1.817 1.085 2.492.628.548 2.212 1.134 2.283 1.14 1.73.276 2.606-.128 4.755-.787l4.464-1.868 13.86-8.446 13.839-8.539 3.144-5.293c3.048-3.93 2.617-5.438 2.394-5.594-.069-1.055-.9-.676-1.257-.973zm332.94 35.483c-.067.195 1.544 6.943 3.146 14.591l2.556 13.278-.131 5.564c-.28 2.903-.233 4.897-.288 4.947-1.905.414-3.049 1.254-6.074 2.764-10.901 5.442-24.194 10.812-37.541 15.544l-8.44 2.947 3.583 2.172c.964.834 2.098 2.015 2.224 2.026.405.028 10.478-2.047 16.569-4.35 10.61-4.015 25.313-11.434 31.377-14.698l2.606-.887 1.367-5.288-.498-5.074-3.112-15.227c-2.342-11.266-2.876-18.154-3.61-19.62-.544-1.089-4.07-1.588-4.137-1.39zM314.07 657.801c-1.004-.637.018 1.772-.88 4.911-.852 2.978-1.828 3.972-10.142 16.694l-9.04 13.416-4.007 3.61-3.892 2.97-8.381-3.014c-8.884-3.158-14.49-5.196-19.97-7.507-2.178-.92-19.669-10.524-19.453-7.3-.414.412 32.443 16.684 44.56 21.001 1.714.612 5.981 1.03 6.26 1.042.278.006 2.463-.986 4.153-2.348 3.032-2.443 4.277-1.693 13.028-15.082l8.47-14.24 2.587-5.974c1.159-4.12.923-6.22.524-6.473zm116.044 10.35c-1.204.387.34 2.131.797 4.414.073.371-1.34 8.29-3.044 17.362l-3.13 16.135-2.143 4.898c-1.7 3.273-2.178 4.132-2.684 4.245-3.716.83-34.662 1.499-44.829.846-2.917-.188-6.66-.574-6.755-.608-1.957-.707-.617 1.98-.304 2.589.533 1.029.384 2.498 2.873 2.722 1.466.136 6.823-.19 9.95-.028 11.674.584 39.492 1.278 42.9.5.494-.113 1.568-2.232 2.863-4.768l3.08-4.811 1.855-15.294 2.955-16.262-.73-5.449c-.433-3.594-.729-5.786-1.039-5.786z" fill="url(#g)"/><path d="M316.059 81.402c-.55-2.073-.939-3.828-.865-3.902.073-.073.391.835.707 2.018.315 1.183.79 2.94 1.052 3.902.264.963.395 1.75.29 1.75-.102 0-.636-1.695-1.185-3.768z" fill="#faecc9"/><path style="mix-blend-mode:normal" d="M385.714 25.348a348.914 348.914 0 00-15.385.92l-4.861 9.18-6.163 32.728 1.322 10.56-39.791 7.838-2.745-10.322-18.07-27.981-7.93-6.709a348.914 348.914 0 00-52.772 21.662l-.96 10.39 6.864 32.596 5.275 9.27-33.798 22.441-6.492-8.452-27.416-18.96-9.885-3.109a348.914 348.914 0 00-40.462 40.172l3.097 9.94 18.786 27.514 8.4 6.507-22.61 33.688-9.237-5.337-32.54-7.015-10.393.876a348.914 348.914 0 00-21.958 52.643l6.62 7.97 27.903 18.243 10.278 2.837-8.06 39.74-10.554-1.395-32.776 5.99-9.215 4.796a348.914 348.914 0 00-1.258 28.501 348.914 348.914 0 001.054 28.486l9.217 4.86 32.764 6.162 10.597-1.324 7.765 39.794-10.284 2.78-27.981 18.07-6.67 7.965a348.914 348.914 0 0021.622 52.7l10.391.998L130 526.732l9.233-5.31 22.442 33.835-8.454 6.455-18.96 27.38-3.144 9.96a348.914 348.914 0 0040.206 40.387l9.944-3.024 27.512-18.823 6.542-8.437 33.654 22.685-5.302 9.198-7.05 32.578.91 10.355a348.914 348.914 0 0052.607 21.96l8.044-6.624 18.17-27.9 2.837-10.278 39.774 8.023-1.432 10.554 5.993 32.813 4.795 9.215a348.914 348.914 0 0028.501 1.26 348.914 348.914 0 0028.558-1.094l4.824-9.216 6.163-32.727-1.324-10.597 39.793-7.801 2.744 10.321 18.035 28.02 7.965 6.67a348.914 348.914 0 0052.808-21.7l.925-10.353-6.829-32.597-5.273-9.233 33.798-22.44 6.492 8.452 27.378 18.923 9.923 3.145a348.914 348.914 0 0040.461-40.209l-3.097-9.94-18.822-27.512-8.363-6.509 22.612-33.65 9.198 5.3 32.576 7.014 10.356-.874a348.914 348.914 0 0021.995-52.645l-6.656-7.969-27.904-18.243-10.24-2.802 8.023-39.774 10.553 1.395 32.778-5.954 9.215-4.796a348.914 348.914 0 001.294-28.502 348.914 348.914 0 00-1.092-28.522l-9.217-4.86-32.763-6.125-10.56 1.322-7.803-39.829 10.284-2.78 28.02-18.034 6.67-7.966a348.914 348.914 0 00-21.662-52.772l-10.352-.925-32.597 6.829-9.27 5.274-22.441-33.798 8.452-6.492 18.96-27.38 3.145-9.922a348.914 348.914 0 00-40.207-40.425l-9.942 3.061-27.513 18.786-6.543 8.438-33.617-22.687 5.302-9.198 7.051-32.54-.911-10.393a348.914 348.914 0 00-52.607-21.96l-8.043 6.66-18.244 27.867L476.517 87l-39.774-8.023 1.395-10.553-5.954-32.778-4.834-9.25a348.914 348.914 0 00-28.5-1.222 348.914 348.914 0 00-13.136.173zm9.663 313.75a35.062 35.062 0 011.137-.043 35.062 35.062 0 0136.35 33.67 35.062 35.062 0 01-33.668 36.386 35.062 35.062 0 01-36.389-33.704 35.062 35.062 0 0132.57-36.309z" fill="url(#h)"/><g fill="none" stroke="#9c6733"><path d="M380.15 25.781a345.36 345.36 0 00-9.82.523l-4.862 9.144-6.163 32.728 1.322 10.56-39.791 7.838-.261-1.055-4.117.818-2.704-10.213-17.875-27.695-6.942-5.828a348.914 348.914 0 00-49.618 20.623l-.96 10.39 6.864 32.596 5.275 9.27-33.798 22.441-1.507-1.961-1.826 1.208-6.416-8.382-27.115-18.75-7.285-2.328a348.914 348.914 0 00-40.106 39.864l3.097 9.94 18.786 27.514 8.4 6.507-22.61 33.688-9.237-5.337-32.54-7.015-10.393.876a348.914 348.914 0 00-21.958 52.643l4.927 5.942 27.45 17.93 10.204 2.804-.34 1.665 2.56.71-8.06 39.739-10.554-1.395-32.776 5.99-9.215 4.796a348.914 348.914 0 00-1.258 28.501 348.914 348.914 0 00.878 25.813l7.719 4.073 32.393 6.066 10.45-1.318.73 3.717 1.462-.167 7.765 39.793-10.284 2.78-27.981 18.071-6.67 7.965a348.914 348.914 0 009.158 25.386 348.914 348.914 0 00.647 1.554 345.36 345.36 0 00.243.578 345.36 345.36 0 009.594 20.45l10.279.928 32.232-6.778 9.163-5.197 22.207 33.44-.392.309 3.155 4.725-8.454 6.454-18.96 27.38-2.52 8.027a345.36 345.36 0 0036.75 36.48l9.835-3.02 27.225-18.628 6.159-7.908a295.877 295.877 0 01-109.518-218.658 295.877 295.877 0 01284.34-306.981 295.877 295.877 0 01154.015 36.47l4.753-8.185 6.953-32.244-.871-10.283a345.36 345.36 0 00-47.844-20.306l-6.014 5.003-18.244 27.866-2.764 10.276-5.697-1.14-.258.927-39.368-7.965 1.362-10.442-5.905-32.449-4.756-9.143a345.36 345.36 0 00-28.206-1.233 345.36 345.36 0 00-13.539.225zm239.083 84.502l-4.827 1.47-27.514 18.786-6.542 8.438-4.975-3.371-.875 1.135a295.877 295.877 0 0154.632 52.795l5.67-4.366 18.75-27.115 3.112-9.811a345.36 345.36 0 00-37.431-37.96zm79.073 104.323l-32.597 6.828-9.27 5.275-2.922-4.404-1.258.71a295.877 295.877 0 0130.226 70.286l4.98-1.328 27.694-17.876 6.638-7.853a345.36 345.36 0 00-21.06-51.437zm-5.887 118.553l-1.535.204a295.877 295.877 0 012.63 29.38 295.877 295.877 0 01-2.034 47.55l3.763.479 32.414-5.867 9.143-4.756a345.36 345.36 0 001.23-28.243 345.36 345.36 0 00-1.043-28.23l-5.508-2.91-27.77-5.177-10.56 1.322zm-8.794 117.453A295.877 295.877 0 01654.12 521.9l2.816 1.618 32.243 6.952 10.247-.87a345.36 345.36 0 0021.76-52.085l-6.582-7.935-23.007-15.016-6.68-1.837.343-1.665zm-52.465 105.43a295.877 295.877 0 01-54.981 54.092l1.004 1.32 1.827-1.208 5.293 6.883 21.232 14.68 9.81 3.075a345.36 345.36 0 0040.037-39.751l-3.057-9.87-18.592-27.227zm-386.512 71.154l-.723 1.24 5.05 3.404-5.302 9.198-7.05 32.578.508 5.597a345.36 345.36 0 0048.978 20.19l7.898-6.58 18.035-27.602 2.028-7.42a295.877 295.877 0 01-69.422-30.605zm297.144 5.364a295.877 295.877 0 01-71.46 28.363l.385 1.454 4.118-.82 2.744 10.322 16.122 25.046 3.68 3.089a345.36 345.36 0 0052.23-21.457l.93-10.242-6.78-32.269zm-188.1 34.077l-.167 1.401 5.44 1.113-1.432 10.555 5.992 32.813 1.348 2.59a345.36 345.36 0 0026.81 1.177 345.36 345.36 0 0028.227-1.081l4.827-9.143 6.065-32.394-.688-5.517a295.877 295.877 0 01-20.94 1.574 295.877 295.877 0 01-55.482-3.089z" style="font-variation-settings:normal" stroke-width="1.503"/><path d="M397.67 476.8c58.827 1.767 108.652-46.55 110.342-105.06 1.76-60.93-48.308-112.515-108.925-114.202-63-1.753-116.324 50.041-118.008 112.734-1.747 65.046 51.75 120.083 116.492 121.765 67.065 1.743 123.795-53.436 125.476-120.2 1.738-69.06-55.102-127.462-123.864-129.142-71.03-1.736-131.086 56.746-132.765 127.482-1.733 72.979 58.371 134.67 131.06 136.35 74.906 1.73 138.215-59.979 139.895-134.598 1.73-76.814-61.568-141.724-138.098-143.405-78.703-1.73-145.198 63.141-146.88 141.562-1.729 80.574 64.698 148.638 144.992 150.322 82.426 1.729 152.046-66.24 153.732-148.39 1.73-84.262-67.768-155.423-151.756-157.11-86.081-1.73-158.77 69.281-160.46 155.091-1.732 87.886 70.782 162.089 158.398 163.782 89.674 1.733 165.38-72.27 167.076-161.677 1.734-91.45-73.745-168.645-164.929-170.344-93.21-1.736-171.884 75.208-173.586 168.155-1.739 94.957 76.66 175.098 171.355 176.804 96.691 1.74 178.29-78.1 179.998-174.532 1.744-98.413-79.53-181.456-177.684-183.169-100.122-1.747-184.602 80.949-186.318 180.815-1.75 101.82 82.358 187.724 183.923 189.445 103.505 1.753 190.827-83.757 192.551-187.01 1.757-105.18-85.147-193.909-190.076-195.638-106.844-1.76-196.97 86.528-198.704 193.123-1.764 108.498 87.9 200.013 196.15 201.75 110.14 1.769 203.036-89.262 204.779-199.157 1.771-111.774-90.618-206.042-202.147-207.788-113.398-1.776-209.03 91.963-210.781 205.118-1.78 115.012 93.301 212 208.072 213.756 68.591 1.05 134.86-32.108 175.346-87.45" stroke-width="1.15170208" stroke-miterlimit="3.7" stroke-dasharray=".03175,.015875,.0079375,.015875" stroke-dashoffset=".043"/></g><g fill="none"><circle transform="rotate(-2.193)" r="295.877" cy="389.023" cx="383.241" opacity=".99" stroke="#6b4217" stroke-width="2.348"/><path d="M398.864 25.157a348.914 348.914 0 00-28.516 1.092l-4.872 9.21-6.151 32.744 1.33 10.552-39.81 7.805-2.748-10.295-18.051-27.988-7.976-6.694a348.914 348.914 0 00-52.746 21.67l-.962 10.358 6.856 32.614 5.266 9.24-33.796 22.452-6.48-8.461-27.395-18.958-9.905-3.122a348.914 348.914 0 00-40.445 40.193l3.065 9.941 18.798 27.506 8.405 6.528-22.629 33.665-9.228-5.32-32.555-7.045-10.364.902a348.914 348.914 0 00-21.975 52.639l6.63 7.995 27.9 18.214 10.28 2.825-8.036 39.764-10.563-1.39-32.779 5.961-9.22 4.8a348.914 348.914 0 00-1.257 28.51 348.914 348.914 0 001.073 28.516l9.211 4.853 32.744 6.151 10.57-1.33 7.806 39.811-10.296 2.747-28.006 18.07-6.676 7.957a348.914 348.914 0 0021.651 52.747l10.378.961 32.595-6.838 9.259-5.266 22.433 33.797-8.442 6.48-18.958 27.395-3.141 9.924a348.914 348.914 0 0040.211 40.426l9.942-3.065 27.505-18.798 6.528-8.423 33.666 22.647-5.32 9.21-7.045 32.573.902 10.364a348.914 348.914 0 0052.638 21.957l7.996-6.63 18.214-27.9 2.806-10.261 39.765 8.017-1.392 10.562 5.962 32.78 4.8 9.22a348.914 348.914 0 0028.528 1.274 348.914 348.914 0 0028.516-1.092l4.854-9.21 6.151-32.745-1.33-10.57 39.81-7.787 2.748 10.277 18.052 28.006 7.956 6.676a348.914 348.914 0 0052.766-21.668l.961-10.34-6.838-32.614-5.284-9.24L579 610.232l6.48 8.46 27.395 18.958 9.924 3.123a348.914 348.914 0 0040.445-40.193l-3.084-9.941-18.798-27.505-8.405-6.529 22.629-33.665 9.228 5.319 32.555 7.027 10.364-.901a348.914 348.914 0 0021.975-52.62l-6.63-7.996-27.9-18.232-10.28-2.807 8.036-39.764 10.563 1.39 32.779-5.96 9.22-4.801a348.914 348.914 0 001.256-28.51 348.914 348.914 0 00-1.073-28.515l-9.21-4.854-32.744-6.152-10.57 1.33-7.805-39.81 10.295-2.766 28.006-18.051 6.676-7.957a348.914 348.914 0 00-21.67-52.766l-10.36-.962-32.595 6.857-9.258 5.265-22.433-33.796 8.442-6.48 18.958-27.395 3.14-9.924a348.914 348.914 0 00-40.21-40.425l-9.942 3.064-27.505 18.799-6.529 8.423-33.665-22.647 5.338-9.21 7.027-32.573-.902-10.364a348.914 348.914 0 00-52.62-21.976l-8.014 6.649-18.214 27.882-2.806 10.28-39.765-8.036 1.391-10.544-5.961-32.78-4.819-9.238a348.914 348.914 0 00-28.49-1.257z" style="font-variation-settings:normal" stroke="#593713" stroke-width="5.635"/><circle transform="rotate(-2.193)" cx="383.241" cy="389.023" r="289.365" opacity=".99" stroke="#6b4217" stroke-width="2.384"/><circle transform="rotate(-2.193)" cx="383.241" cy="389.023" r="35.062" opacity=".99" stroke="#593713" stroke-width="5.635"/><circle transform="rotate(-2.193)" r="46.212" cy="389.023" cx="383.241" opacity=".99" stroke="#9c6733" stroke-width="1.992"/><circle transform="rotate(-2.193)" r="93.184" cy="389.023" cx="383.241" opacity=".99" stroke="#9c6733" stroke-width="1.992"/><circle transform="rotate(-2.193)" cx="383.241" cy="389.023" r="101.067" opacity=".99" stroke="#9c6733" stroke-width="1.992"/><circle transform="rotate(-2.193)" r="213.756" cy="389.023" cx="383.241" opacity=".99" stroke="#6b4217" stroke-width="2.069"/><circle transform="rotate(-2.193)" cx="383.241" cy="389.023" r="220.681" opacity=".99" stroke="#6b4217" stroke-width="2.06"/></g><g fill="#d6c679" stroke="#6b4217"><g stroke-linecap="round" stroke-dashoffset=".162"><path d="M642.901 369.682a4.93 4.93 0 012.157 6.63 4.93 4.93 0 01-6.63 2.156 4.93 4.93 0 01-2.156-6.63 4.93 4.93 0 016.63-2.156" stroke-width="1.3445931199999999"/><path d="M638.549 370.93a1.933 1.317-39.608 012.329-.217 1.933 1.317-39.608 01-.65 2.247 1.933 1.317-39.608 01-2.329.218 1.933 1.317-39.608 01.65-2.247" stroke-width=".46543608"/></g><g stroke-linecap="round" stroke-dashoffset=".162"><path d="M638.236 417.054a4.93 4.93 0 012.156 6.63 4.93 4.93 0 01-6.63 2.156 4.93 4.93 0 01-2.156-6.63 4.93 4.93 0 016.63-2.156" stroke-width="1.3445931199999999"/><path d="M633.883 418.303a1.933 1.317-39.608 012.33-.218 1.933 1.317-39.608 01-.65 2.247 1.933 1.317-39.608 01-2.33.218 1.933 1.317-39.608 01.65-2.247" stroke-width=".46543608"/></g><g stroke-linecap="round" stroke-dashoffset=".162"><path d="M624.418 462.606a4.93 4.93 0 012.156 6.63 4.93 4.93 0 01-6.63 2.156 4.93 4.93 0 01-2.156-6.63 4.93 4.93 0 016.63-2.156" stroke-width="1.3445931199999999"/><path d="M620.065 463.854a1.933 1.317-39.608 012.33-.218 1.933 1.317-39.608 01-.65 2.248 1.933 1.317-39.608 01-2.33.217 1.933 1.317-39.608 01.65-2.247" stroke-width=".46543608"/></g><g stroke-linecap="round" stroke-dashoffset=".162"><path d="M601.979 504.586a4.93 4.93 0 012.156 6.63 4.93 4.93 0 01-6.63 2.156 4.93 4.93 0 01-2.156-6.63 4.93 4.93 0 016.63-2.156" stroke-width="1.3445931199999999"/><path d="M597.626 505.835a1.933 1.317-39.608 012.33-.218 1.933 1.317-39.608 01-.65 2.247 1.933 1.317-39.608 01-2.33.218 1.933 1.317-39.608 01.65-2.247" stroke-width=".46543608"/></g><g stroke-linecap="round" stroke-dashoffset=".162"><path d="M571.78 541.382a4.93 4.93 0 012.157 6.63 4.93 4.93 0 01-6.629 2.156 4.93 4.93 0 01-2.157-6.63 4.93 4.93 0 016.63-2.156" stroke-width="1.3445931199999999"/><path d="M567.428 542.63a1.933 1.317-39.608 012.33-.217 1.933 1.317-39.608 01-.65 2.247 1.933 1.317-39.608 01-2.33.218 1.933 1.317-39.608 01.65-2.247" stroke-width=".46543608"/></g><g stroke-linecap="round" stroke-dashoffset=".162"><path d="M534.985 571.58a4.93 4.93 0 012.156 6.63 4.93 4.93 0 01-6.63 2.156 4.93 4.93 0 01-2.156-6.63 4.93 4.93 0 016.63-2.156" stroke-width="1.3445931199999999"/><path d="M530.632 572.829a1.933 1.317-39.608 012.33-.218 1.933 1.317-39.608 01-.65 2.247 1.933 1.317-39.608 01-2.33.218 1.933 1.317-39.608 01.65-2.247" stroke-width=".46543608"/></g><g stroke-linecap="round" stroke-dashoffset=".162"><path d="M493.004 594.02a4.93 4.93 0 012.157 6.629 4.93 4.93 0 01-6.63 2.156 4.93 4.93 0 01-2.156-6.63 4.93 4.93 0 016.63-2.156" stroke-width="1.3445931199999999"/><path d="M488.652 595.268a1.933 1.317-39.608 012.329-.218 1.933 1.317-39.608 01-.65 2.247 1.933 1.317-39.608 01-2.329.218 1.933 1.317-39.608 01.65-2.247" stroke-width=".46543608"/></g><g stroke-linecap="round" stroke-dashoffset=".162"><path d="M447.453 607.837a4.93 4.93 0 012.156 6.63 4.93 4.93 0 01-6.63 2.156 4.93 4.93 0 01-2.156-6.63 4.93 4.93 0 016.63-2.156" stroke-width="1.3445931199999999"/><path d="M443.1 609.086a1.933 1.317-39.608 012.33-.218 1.933 1.317-39.608 01-.65 2.247 1.933 1.317-39.608 01-2.33.218 1.933 1.317-39.608 01.65-2.247" stroke-width=".46543608"/></g><g stroke-linecap="round" stroke-dashoffset=".162"><path d="M400.08 612.503a4.93 4.93 0 012.157 6.63 4.93 4.93 0 01-6.63 2.156 4.93 4.93 0 01-2.156-6.63 4.93 4.93 0 016.63-2.156" stroke-width="1.3445931199999999"/><path d="M395.728 613.751a1.933 1.317-39.608 012.33-.217 1.933 1.317-39.608 01-.65 2.247 1.933 1.317-39.608 01-2.33.217 1.933 1.317-39.608 01.65-2.247" stroke-width=".46543608"/></g><g stroke-linecap="round" stroke-dashoffset=".162"><path d="M352.709 607.837a4.93 4.93 0 012.156 6.63 4.93 4.93 0 01-6.629 2.156 4.93 4.93 0 01-2.157-6.63 4.93 4.93 0 016.63-2.156" stroke-width="1.3445931199999999"/><path d="M348.356 609.086a1.933 1.317-39.608 012.33-.218 1.933 1.317-39.608 01-.65 2.247 1.933 1.317-39.608 01-2.33.218 1.933 1.317-39.608 01.65-2.247" stroke-width=".46543608"/></g><g stroke-linecap="round" stroke-dashoffset=".162"><path d="M307.157 594.02a4.93 4.93 0 012.157 6.629 4.93 4.93 0 01-6.63 2.156 4.93 4.93 0 01-2.156-6.63 4.93 4.93 0 016.63-2.156" stroke-width="1.3445931199999999"/><path d="M302.805 595.268a1.933 1.317-39.608 012.329-.218 1.933 1.317-39.608 01-.65 2.247 1.933 1.317-39.608 01-2.329.218 1.933 1.317-39.608 01.65-2.247" stroke-width=".46543608"/></g><g stroke-linecap="round" stroke-dashoffset=".162"><path d="M265.177 571.58a4.93 4.93 0 012.156 6.63 4.93 4.93 0 01-6.629 2.156 4.93 4.93 0 01-2.157-6.63 4.93 4.93 0 016.63-2.156" stroke-width="1.3445931199999999"/><path d="M260.824 572.829a1.933 1.317-39.608 012.33-.218 1.933 1.317-39.608 01-.65 2.247 1.933 1.317-39.608 01-2.33.218 1.933 1.317-39.608 01.65-2.247" stroke-width=".46543608"/></g><g stroke-linecap="round" stroke-dashoffset=".162"><path d="M228.38 541.382a4.93 4.93 0 012.157 6.63 4.93 4.93 0 01-6.63 2.156 4.93 4.93 0 01-2.156-6.63 4.93 4.93 0 016.63-2.156" stroke-width="1.3445931199999999"/><path d="M224.028 542.63a1.933 1.317-39.608 012.33-.217 1.933 1.317-39.608 01-.65 2.247 1.933 1.317-39.608 01-2.33.218 1.933 1.317-39.608 01.65-2.247" stroke-width=".46543608"/></g><g stroke-linecap="round" stroke-dashoffset=".162"><path d="M198.183 504.586a4.93 4.93 0 012.156 6.63 4.93 4.93 0 01-6.63 2.156 4.93 4.93 0 01-2.156-6.63 4.93 4.93 0 016.63-2.156" stroke-width="1.3445931199999999"/><path d="M193.83 505.835a1.933 1.317-39.608 012.33-.218 1.933 1.317-39.608 01-.65 2.247 1.933 1.317-39.608 01-2.33.218 1.933 1.317-39.608 01.65-2.247" stroke-width=".46543608"/></g><g stroke-linecap="round" stroke-dashoffset=".162"><path d="M175.744 462.606a4.93 4.93 0 012.156 6.63 4.93 4.93 0 01-6.63 2.156 4.93 4.93 0 01-2.156-6.63 4.93 4.93 0 016.63-2.156" stroke-width="1.3445931199999999"/><path d="M171.391 463.854a1.933 1.317-39.608 012.33-.218 1.933 1.317-39.608 01-.65 2.248 1.933 1.317-39.608 01-2.33.217 1.933 1.317-39.608 01.65-2.247" stroke-width=".46543608"/></g><g stroke-linecap="round" stroke-dashoffset=".162"><path d="M161.926 417.054a4.93 4.93 0 012.156 6.63 4.93 4.93 0 01-6.629 2.156 4.93 4.93 0 01-2.157-6.63 4.93 4.93 0 016.63-2.156" stroke-width="1.3445931199999999"/><path d="M157.573 418.303a1.933 1.317-39.608 012.33-.218 1.933 1.317-39.608 01-.65 2.247 1.933 1.317-39.608 01-2.33.218 1.933 1.317-39.608 01.65-2.247" stroke-width=".46543608"/></g><g stroke-linecap="round" stroke-dashoffset=".162"><path d="M157.26 369.682a4.93 4.93 0 012.157 6.63 4.93 4.93 0 01-6.63 2.156 4.93 4.93 0 01-2.156-6.63 4.93 4.93 0 016.63-2.156" stroke-width="1.3445931199999999"/><path d="M152.908 370.93a1.933 1.317-39.608 012.329-.217 1.933 1.317-39.608 01-.65 2.247 1.933 1.317-39.608 01-2.33.218 1.933 1.317-39.608 01.65-2.247" stroke-width=".46543608"/></g><g stroke-linecap="round" stroke-dashoffset=".162"><path d="M161.926 322.31a4.93 4.93 0 012.156 6.63 4.93 4.93 0 01-6.629 2.156 4.93 4.93 0 01-2.157-6.63 4.93 4.93 0 016.63-2.156" stroke-width="1.3445931199999999"/><path d="M157.573 323.559a1.933 1.317-39.608 012.33-.218 1.933 1.317-39.608 01-.65 2.247 1.933 1.317-39.608 01-2.33.218 1.933 1.317-39.608 01.65-2.247" stroke-width=".46543608"/></g><g stroke-linecap="round" stroke-dashoffset=".162"><path d="M175.744 276.759a4.93 4.93 0 012.156 6.63 4.93 4.93 0 01-6.63 2.156 4.93 4.93 0 01-2.156-6.63 4.93 4.93 0 016.63-2.156" stroke-width="1.3445931199999999"/><path d="M171.391 278.007a1.933 1.317-39.608 012.33-.217 1.933 1.317-39.608 01-.65 2.247 1.933 1.317-39.608 01-2.33.217 1.933 1.317-39.608 01.65-2.247" stroke-width=".46543608"/></g><g stroke-linecap="round" stroke-dashoffset=".162"><path d="M198.183 234.778a4.93 4.93 0 012.156 6.63 4.93 4.93 0 01-6.629 2.156 4.93 4.93 0 01-2.157-6.63 4.93 4.93 0 016.63-2.156" stroke-width="1.3445931199999999"/><path d="M193.83 236.027a1.933 1.317-39.608 012.33-.218 1.933 1.317-39.608 01-.65 2.247 1.933 1.317-39.608 01-2.33.218 1.933 1.317-39.608 01.65-2.247" stroke-width=".46543608"/></g><g stroke-linecap="round" stroke-dashoffset=".162"><path d="M228.38 197.982a4.93 4.93 0 012.157 6.63 4.93 4.93 0 01-6.63 2.156 4.93 4.93 0 01-2.156-6.63 4.93 4.93 0 016.63-2.156" stroke-width="1.3445931199999999"/><path d="M224.028 199.23a1.933 1.317-39.608 012.33-.217 1.933 1.317-39.608 01-.65 2.247 1.933 1.317-39.608 01-2.33.218 1.933 1.317-39.608 01.65-2.247" stroke-width=".46543608"/></g><g stroke-linecap="round" stroke-dashoffset=".162"><path d="M265.177 167.784a4.93 4.93 0 012.156 6.63 4.93 4.93 0 01-6.629 2.156 4.93 4.93 0 01-2.157-6.63 4.93 4.93 0 016.63-2.156" stroke-width="1.3445931199999999"/><path d="M260.824 169.033a1.933 1.317-39.608 012.33-.218 1.933 1.317-39.608 01-.65 2.247 1.933 1.317-39.608 01-2.33.218 1.933 1.317-39.608 01.65-2.247" stroke-width=".46543608"/></g><g stroke-linecap="round" stroke-dashoffset=".162"><path d="M307.157 145.345a4.93 4.93 0 012.157 6.63 4.93 4.93 0 01-6.63 2.156 4.93 4.93 0 01-2.156-6.63 4.93 4.93 0 016.63-2.156" stroke-width="1.3445931199999999"/><path d="M302.805 146.594a1.933 1.317-39.608 012.329-.218 1.933 1.317-39.608 01-.65 2.247 1.933 1.317-39.608 01-2.329.218 1.933 1.317-39.608 01.65-2.247" stroke-width=".46543608"/></g><g stroke-linecap="round" stroke-dashoffset=".162"><path d="M352.709 131.527a4.93 4.93 0 012.156 6.63 4.93 4.93 0 01-6.63 2.156 4.93 4.93 0 01-2.156-6.629 4.93 4.93 0 016.63-2.157" stroke-width="1.3445931199999999"/><path d="M348.356 132.776a1.933 1.317-39.608 012.33-.218 1.933 1.317-39.608 01-.65 2.247 1.933 1.317-39.608 01-2.33.218 1.933 1.317-39.608 01.65-2.247" stroke-width=".46543608"/></g><g stroke-linecap="round" stroke-dashoffset=".162"><path d="M400.08 126.862a4.93 4.93 0 012.157 6.63 4.93 4.93 0 01-6.63 2.156 4.93 4.93 0 01-2.156-6.63 4.93 4.93 0 016.63-2.156" stroke-width="1.3445931199999999"/><path d="M395.728 128.11a1.933 1.317-39.608 012.33-.218 1.933 1.317-39.608 01-.65 2.248 1.933 1.317-39.608 01-2.33.217 1.933 1.317-39.608 01.65-2.247" stroke-width=".46543608"/></g><g stroke-linecap="round" stroke-dashoffset=".162"><path d="M447.453 131.527a4.93 4.93 0 012.156 6.63 4.93 4.93 0 01-6.63 2.156 4.93 4.93 0 01-2.156-6.629 4.93 4.93 0 016.63-2.157" stroke-width="1.3445931199999999"/><path d="M443.1 132.776a1.933 1.317-39.608 012.33-.218 1.933 1.317-39.608 01-.65 2.247 1.933 1.317-39.608 01-2.33.218 1.933 1.317-39.608 01.65-2.247" stroke-width=".46543608"/></g><g stroke-linecap="round" stroke-dashoffset=".162"><path d="M493.004 145.345a4.93 4.93 0 012.157 6.63 4.93 4.93 0 01-6.63 2.156 4.93 4.93 0 01-2.156-6.63 4.93 4.93 0 016.63-2.156" stroke-width="1.3445931199999999"/><path d="M488.652 146.594a1.933 1.317-39.608 012.329-.218 1.933 1.317-39.608 01-.65 2.247 1.933 1.317-39.608 01-2.329.218 1.933 1.317-39.608 01.65-2.247" stroke-width=".46543608"/></g><g stroke-linecap="round" stroke-dashoffset=".162"><path d="M534.985 167.784a4.93 4.93 0 012.156 6.63 4.93 4.93 0 01-6.63 2.156 4.93 4.93 0 01-2.156-6.629 4.93 4.93 0 016.63-2.157" stroke-width="1.3445931199999999"/><path d="M530.632 169.033a1.933 1.317-39.608 012.33-.218 1.933 1.317-39.608 01-.65 2.247 1.933 1.317-39.608 01-2.33.218 1.933 1.317-39.608 01.65-2.247" stroke-width=".46543608"/></g><g stroke-linecap="round" stroke-dashoffset=".162"><path d="M571.78 197.982a4.93 4.93 0 012.157 6.63 4.93 4.93 0 01-6.629 2.156 4.93 4.93 0 01-2.157-6.63 4.93 4.93 0 016.63-2.156" stroke-width="1.3445931199999999"/><path d="M567.428 199.23a1.933 1.317-39.608 012.33-.217 1.933 1.317-39.608 01-.65 2.247 1.933 1.317-39.608 01-2.33.218 1.933 1.317-39.608 01.65-2.247" stroke-width=".46543608"/></g><g stroke-linecap="round" stroke-dashoffset=".162"><path d="M601.979 234.778a4.93 4.93 0 012.156 6.63 4.93 4.93 0 01-6.63 2.156 4.93 4.93 0 01-2.156-6.63 4.93 4.93 0 016.63-2.156" stroke-width="1.3445931199999999"/><path d="M597.626 236.027a1.933 1.317-39.608 012.33-.218 1.933 1.317-39.608 01-.65 2.247 1.933 1.317-39.608 01-2.33.218 1.933 1.317-39.608 01.65-2.247" stroke-width=".46543608"/></g><g stroke-linecap="round" stroke-dashoffset=".162"><path d="M624.418 276.759a4.93 4.93 0 012.156 6.63 4.93 4.93 0 01-6.63 2.156 4.93 4.93 0 01-2.156-6.63 4.93 4.93 0 016.63-2.156" stroke-width="1.3445931199999999"/><path d="M620.065 278.007a1.933 1.317-39.608 012.33-.217 1.933 1.317-39.608 01-.65 2.247 1.933 1.317-39.608 01-2.33.217 1.933 1.317-39.608 01.65-2.247" stroke-width=".46543608"/></g><g stroke-linecap="round" stroke-dashoffset=".162"><path d="M638.236 322.31a4.93 4.93 0 012.156 6.63 4.93 4.93 0 01-6.63 2.156 4.93 4.93 0 01-2.156-6.629 4.93 4.93 0 016.63-2.157" stroke-width="1.3445931199999999"/><path d="M633.883 323.559a1.933 1.317-39.608 012.33-.218 1.933 1.317-39.608 01-.65 2.247 1.933 1.317-39.608 01-2.33.218 1.933 1.317-39.608 01.65-2.247" stroke-width=".46543608"/></g><g stroke-linecap="round" stroke-dashoffset=".162"><path d="M665.13 342.87a4.93 4.93 0 012.807 6.38 4.93 4.93 0 01-6.382 2.808 4.93 4.93 0 01-2.807-6.382 4.93 4.93 0 016.382-2.807" stroke-width="1.3445931199999999"/><path d="M660.923 344.546a1.933 1.317-45.332 012.296-.45 1.933 1.317-45.332 01-.422 2.302 1.933 1.317-45.332 01-2.296.448 1.933 1.317-45.332 01.422-2.3" stroke-width=".46543608"/></g><g stroke-linecap="round" stroke-dashoffset=".162"><path d="M665.22 395.177a4.93 4.93 0 012.807 6.381 4.93 4.93 0 01-6.382 2.807 4.93 4.93 0 01-2.806-6.381 4.93 4.93 0 016.38-2.807" stroke-width="1.3445931199999999"/><path d="M661.013 396.853a1.933 1.317-45.332 012.296-.449 1.933 1.317-45.332 01-.422 2.301 1.933 1.317-45.332 01-2.296.449 1.933 1.317-45.332 01.422-2.3" stroke-width=".46543608"/></g><g stroke-linecap="round" stroke-dashoffset=".162"><path d="M655.104 446.497a4.93 4.93 0 012.807 6.381 4.93 4.93 0 01-6.382 2.807 4.93 4.93 0 01-2.807-6.381 4.93 4.93 0 016.382-2.807" stroke-width="1.3445931199999999"/><path d="M650.897 448.173a1.933 1.317-45.332 012.296-.449 1.933 1.317-45.332 01-.422 2.301 1.933 1.317-45.332 01-2.296.449 1.933 1.317-45.332 01.422-2.3" stroke-width=".46543608"/></g><g stroke-linecap="round" stroke-dashoffset=".162"><path d="M635.17 494.857a4.93 4.93 0 012.807 6.381 4.93 4.93 0 01-6.382 2.807 4.93 4.93 0 01-2.807-6.38 4.93 4.93 0 016.382-2.808" stroke-width="1.3445931199999999"/><path d="M630.963 496.533a1.933 1.317-45.332 012.296-.448 1.933 1.317-45.332 01-.422 2.3 1.933 1.317-45.332 01-2.296.45 1.933 1.317-45.332 01.422-2.302" stroke-width=".46543608"/></g><g stroke-linecap="round" stroke-dashoffset=".162"><path d="M606.184 538.4a4.93 4.93 0 012.807 6.38 4.93 4.93 0 01-6.381 2.808 4.93 4.93 0 01-2.807-6.382 4.93 4.93 0 016.381-2.807" stroke-width="1.3445931199999999"/><path d="M601.978 540.076a1.933 1.317-45.332 012.296-.45 1.933 1.317-45.332 01-.423 2.301 1.933 1.317-45.332 01-2.295.45 1.933 1.317-45.332 01.422-2.301" stroke-width=".46543608"/></g><g stroke-linecap="round" stroke-dashoffset=".162"><path d="M569.261 575.45a4.93 4.93 0 012.807 6.381 4.93 4.93 0 01-6.381 2.807 4.93 4.93 0 01-2.807-6.38 4.93 4.93 0 016.381-2.808" stroke-width="1.3445931199999999"/><path d="M565.055 577.126a1.933 1.317-45.332 012.295-.448 1.933 1.317-45.332 01-.422 2.3 1.933 1.317-45.332 01-2.296.45 1.933 1.317-45.332 01.423-2.302" stroke-width=".46543608"/></g><g stroke-linecap="round" stroke-dashoffset=".162"><path d="M525.82 604.586a4.93 4.93 0 012.806 6.38 4.93 4.93 0 01-6.381 2.808 4.93 4.93 0 01-2.807-6.381 4.93 4.93 0 016.381-2.807" stroke-width="1.3445931199999999"/><path d="M521.613 606.262a1.933 1.317-45.332 012.296-.45 1.933 1.317-45.332 01-.423 2.302 1.933 1.317-45.332 01-2.295.449 1.933 1.317-45.332 01.422-2.301" stroke-width=".46543608"/></g><g stroke-linecap="round" stroke-dashoffset=".162"><path d="M477.528 624.686a4.93 4.93 0 012.807 6.381 4.93 4.93 0 01-6.381 2.807 4.93 4.93 0 01-2.807-6.381 4.93 4.93 0 016.38-2.807" stroke-width="1.3445931199999999"/><path d="M473.321 626.362a1.933 1.317-45.332 012.296-.449 1.933 1.317-45.332 01-.422 2.301 1.933 1.317-45.332 01-2.296.45 1.933 1.317-45.332 01.422-2.302" stroke-width=".46543608"/></g><g stroke-linecap="round" stroke-dashoffset=".162"><path d="M426.243 634.98a4.93 4.93 0 012.807 6.38 4.93 4.93 0 01-6.381 2.807 4.93 4.93 0 01-2.807-6.38 4.93 4.93 0 016.381-2.808" stroke-width="1.3445931199999999"/><path d="M422.037 636.655a1.933 1.317-45.332 012.295-.448 1.933 1.317-45.332 01-.422 2.3 1.933 1.317-45.332 01-2.296.45 1.933 1.317-45.332 01.423-2.302" stroke-width=".46543608"/></g><g stroke-linecap="round" stroke-dashoffset=".162"><path d="M373.936 635.07a4.93 4.93 0 012.807 6.38 4.93 4.93 0 01-6.382 2.808 4.93 4.93 0 01-2.807-6.382 4.93 4.93 0 016.382-2.807" stroke-width="1.3445931199999999"/><path d="M369.73 636.746a1.933 1.317-45.332 012.295-.45 1.933 1.317-45.332 01-.422 2.302 1.933 1.317-45.332 01-2.296.448 1.933 1.317-45.332 01.422-2.3" stroke-width=".46543608"/></g><g stroke-linecap="round" stroke-dashoffset=".162"><path d="M322.616 624.953a4.93 4.93 0 012.807 6.381 4.93 4.93 0 01-6.382 2.807 4.93 4.93 0 01-2.807-6.38 4.93 4.93 0 016.382-2.808" stroke-width="1.3445931199999999"/><path d="M318.41 626.63a1.933 1.317-45.332 012.295-.45 1.933 1.317-45.332 01-.422 2.301 1.933 1.317-45.332 01-2.296.45 1.933 1.317-45.332 01.422-2.302" stroke-width=".46543608"/></g><g stroke-linecap="round" stroke-dashoffset=".162"><path d="M274.255 605.02a4.93 4.93 0 012.807 6.38 4.93 4.93 0 01-6.381 2.808 4.93 4.93 0 01-2.807-6.382 4.93 4.93 0 016.381-2.807" stroke-width="1.3445931199999999"/><path d="M270.049 606.696a1.933 1.317-45.332 012.296-.45 1.933 1.317-45.332 01-.423 2.302 1.933 1.317-45.332 01-2.295.448 1.933 1.317-45.332 01.422-2.3" stroke-width=".46543608"/></g><g stroke-linecap="round" stroke-dashoffset=".162"><path d="M230.713 576.034a4.93 4.93 0 012.807 6.381 4.93 4.93 0 01-6.381 2.807 4.93 4.93 0 01-2.807-6.381 4.93 4.93 0 016.381-2.807" stroke-width="1.3445931199999999"/><path d="M226.507 577.71a1.933 1.317-45.332 012.296-.449 1.933 1.317-45.332 01-.423 2.301 1.933 1.317-45.332 01-2.295.449 1.933 1.317-45.332 01.422-2.3" stroke-width=".46543608"/></g><g stroke-linecap="round" stroke-dashoffset=".162"><path d="M193.662 539.11a4.93 4.93 0 012.807 6.382 4.93 4.93 0 01-6.38 2.807 4.93 4.93 0 01-2.808-6.381 4.93 4.93 0 016.381-2.807" stroke-width="1.3445931199999999"/><path d="M189.456 540.787a1.933 1.317-45.332 012.296-.449 1.933 1.317-45.332 01-.422 2.3 1.933 1.317-45.332 01-2.296.45 1.933 1.317-45.332 01.422-2.301" stroke-width=".46543608"/></g><g stroke-linecap="round" stroke-dashoffset=".162"><path d="M164.527 495.669a4.93 4.93 0 012.807 6.381 4.93 4.93 0 01-6.381 2.807 4.93 4.93 0 01-2.807-6.381 4.93 4.93 0 016.381-2.807" stroke-width="1.3445931199999999"/><path d="M160.32 497.345a1.933 1.317-45.332 012.296-.449 1.933 1.317-45.332 01-.422 2.3 1.933 1.317-45.332 01-2.296.45 1.933 1.317-45.332 01.423-2.301" stroke-width=".46543608"/></g><g stroke-linecap="round" stroke-dashoffset=".162"><path d="M144.426 447.378a4.93 4.93 0 012.807 6.38 4.93 4.93 0 01-6.38 2.808 4.93 4.93 0 01-2.808-6.381 4.93 4.93 0 016.381-2.807" stroke-width="1.3445931199999999"/><path d="M140.22 449.054a1.933 1.317-45.332 012.296-.449 1.933 1.317-45.332 01-.422 2.3 1.933 1.317-45.332 01-2.296.45 1.933 1.317-45.332 01.422-2.301" stroke-width=".46543608"/></g><g stroke-linecap="round" stroke-dashoffset=".162"><path d="M134.133 396.093a4.93 4.93 0 012.807 6.381 4.93 4.93 0 01-6.381 2.807 4.93 4.93 0 01-2.807-6.381 4.93 4.93 0 016.381-2.807" stroke-width="1.3445931199999999"/><path d="M129.927 397.769a1.933 1.317-45.332 012.296-.449 1.933 1.317-45.332 01-.423 2.3 1.933 1.317-45.332 01-2.295.45 1.933 1.317-45.332 01.422-2.301" stroke-width=".46543608"/></g><g stroke-linecap="round" stroke-dashoffset=".162"><path d="M134.043 343.785a4.93 4.93 0 012.807 6.381 4.93 4.93 0 01-6.381 2.807 4.93 4.93 0 01-2.807-6.38 4.93 4.93 0 016.381-2.808" stroke-width="1.3445931199999999"/><path d="M129.837 345.461a1.933 1.317-45.332 012.295-.448 1.933 1.317-45.332 01-.422 2.3 1.933 1.317-45.332 01-2.296.45 1.933 1.317-45.332 01.423-2.302" stroke-width=".46543608"/></g><g stroke-linecap="round" stroke-dashoffset=".162"><path d="M144.16 292.465a4.93 4.93 0 012.806 6.382 4.93 4.93 0 01-6.381 2.807 4.93 4.93 0 01-2.807-6.382 4.93 4.93 0 016.381-2.807" stroke-width="1.3445931199999999"/><path d="M139.953 294.142a1.933 1.317-45.332 012.296-.45 1.933 1.317-45.332 01-.423 2.302 1.933 1.317-45.332 01-2.295.448 1.933 1.317-45.332 01.422-2.3" stroke-width=".46543608"/></g><g stroke-linecap="round" stroke-dashoffset=".162"><path d="M164.093 244.105a4.93 4.93 0 012.807 6.381 4.93 4.93 0 01-6.381 2.807 4.93 4.93 0 01-2.807-6.381 4.93 4.93 0 016.381-2.807" stroke-width="1.3445931199999999"/><path d="M159.887 245.781a1.933 1.317-45.332 012.296-.449 1.933 1.317-45.332 01-.423 2.301 1.933 1.317-45.332 01-2.295.449 1.933 1.317-45.332 01.422-2.3" stroke-width=".46543608"/></g><g stroke-linecap="round" stroke-dashoffset=".162"><path d="M193.079 200.563a4.93 4.93 0 012.807 6.381 4.93 4.93 0 01-6.382 2.807 4.93 4.93 0 01-2.807-6.381 4.93 4.93 0 016.382-2.807" stroke-width="1.3445931199999999"/><path d="M188.872 202.24a1.933 1.317-45.332 012.296-.45 1.933 1.317-45.332 01-.422 2.301 1.933 1.317-45.332 01-2.296.449 1.933 1.317-45.332 01.422-2.3" stroke-width=".46543608"/></g><g stroke-linecap="round" stroke-dashoffset=".162"><path d="M230.002 163.512a4.93 4.93 0 012.807 6.381 4.93 4.93 0 01-6.381 2.807 4.93 4.93 0 01-2.807-6.38 4.93 4.93 0 016.38-2.808" stroke-width="1.3445931199999999"/><path d="M225.795 165.188a1.933 1.317-45.332 012.296-.448 1.933 1.317-45.332 01-.422 2.3 1.933 1.317-45.332 01-2.296.45 1.933 1.317-45.332 01.422-2.302" stroke-width=".46543608"/></g><g stroke-linecap="round" stroke-dashoffset=".162"><path d="M273.444 134.377a4.93 4.93 0 012.807 6.38 4.93 4.93 0 01-6.381 2.808 4.93 4.93 0 01-2.807-6.381 4.93 4.93 0 016.38-2.807" stroke-width="1.3445931199999999"/><path d="M269.237 136.053a1.933 1.317-45.332 012.296-.449 1.933 1.317-45.332 01-.422 2.3 1.933 1.317-45.332 01-2.296.45 1.933 1.317-45.332 01.422-2.301" stroke-width=".46543608"/></g><g stroke-linecap="round" stroke-dashoffset=".162"><path d="M321.735 114.276a4.93 4.93 0 012.807 6.381 4.93 4.93 0 01-6.381 2.807 4.93 4.93 0 01-2.807-6.38 4.93 4.93 0 016.381-2.808" stroke-width="1.3445931199999999"/><path d="M317.529 115.952a1.933 1.317-45.332 012.295-.448 1.933 1.317-45.332 01-.422 2.3 1.933 1.317-45.332 01-2.296.45 1.933 1.317-45.332 01.423-2.302" stroke-width=".46543608"/></g><g stroke-linecap="round" stroke-dashoffset=".162"><path d="M373.02 103.983a4.93 4.93 0 012.807 6.381 4.93 4.93 0 01-6.381 2.807 4.93 4.93 0 01-2.807-6.381 4.93 4.93 0 016.38-2.807" stroke-width="1.3445931199999999"/><path d="M368.813 105.66a1.933 1.317-45.332 012.296-.45 1.933 1.317-45.332 01-.422 2.301 1.933 1.317-45.332 01-2.296.449 1.933 1.317-45.332 01.422-2.3" stroke-width=".46543608"/></g><g stroke-linecap="round" stroke-dashoffset=".162"><path d="M425.327 103.893a4.93 4.93 0 012.807 6.381 4.93 4.93 0 01-6.381 2.807 4.93 4.93 0 01-2.807-6.381 4.93 4.93 0 016.381-2.807" stroke-width="1.3445931199999999"/><path d="M421.12 105.569a1.933 1.317-45.332 012.297-.449 1.933 1.317-45.332 01-.423 2.3 1.933 1.317-45.332 01-2.295.45 1.933 1.317-45.332 01.422-2.301" stroke-width=".46543608"/></g><g stroke-linecap="round" stroke-dashoffset=".162"><path d="M476.647 114.01a4.93 4.93 0 012.807 6.38 4.93 4.93 0 01-6.381 2.807 4.93 4.93 0 01-2.807-6.38 4.93 4.93 0 016.381-2.808" stroke-width="1.3445931199999999"/><path d="M472.44 115.685a1.933 1.317-45.332 012.297-.449 1.933 1.317-45.332 01-.423 2.301 1.933 1.317-45.332 01-2.295.45 1.933 1.317-45.332 01.422-2.302" stroke-width=".46543608"/></g><g stroke-linecap="round" stroke-dashoffset=".162"><path d="M525.008 133.943a4.93 4.93 0 012.807 6.381 4.93 4.93 0 01-6.382 2.807 4.93 4.93 0 01-2.807-6.381 4.93 4.93 0 016.382-2.807" stroke-width="1.3445931199999999"/><path d="M520.801 135.62a1.933 1.317-45.332 012.296-.45 1.933 1.317-45.332 01-.422 2.301 1.933 1.317-45.332 01-2.296.449 1.933 1.317-45.332 01.422-2.3" stroke-width=".46543608"/></g><g stroke-linecap="round" stroke-dashoffset=".162"><path d="M568.55 162.928a4.93 4.93 0 012.807 6.382 4.93 4.93 0 01-6.381 2.807 4.93 4.93 0 01-2.807-6.382 4.93 4.93 0 016.38-2.807" stroke-width="1.3445931199999999"/><path d="M564.343 164.605a1.933 1.317-45.332 012.296-.45 1.933 1.317-45.332 01-.422 2.302 1.933 1.317-45.332 01-2.296.448 1.933 1.317-45.332 01.422-2.3" stroke-width=".46543608"/></g><g stroke-linecap="round" stroke-dashoffset=".162"><path d="M605.6 199.851a4.93 4.93 0 012.807 6.382 4.93 4.93 0 01-6.38 2.807 4.93 4.93 0 01-2.808-6.382 4.93 4.93 0 016.381-2.807" stroke-width="1.3445931199999999"/><path d="M601.394 201.528a1.933 1.317-45.332 012.296-.45 1.933 1.317-45.332 01-.422 2.302 1.933 1.317-45.332 01-2.296.448 1.933 1.317-45.332 01.422-2.3" stroke-width=".46543608"/></g><g stroke-linecap="round" stroke-dashoffset=".162"><path d="M634.736 243.293a4.93 4.93 0 012.807 6.382 4.93 4.93 0 01-6.381 2.807 4.93 4.93 0 01-2.807-6.382 4.93 4.93 0 016.381-2.807" stroke-width="1.3445931199999999"/><path d="M630.53 244.97a1.933 1.317-45.332 012.295-.45 1.933 1.317-45.332 01-.422 2.302 1.933 1.317-45.332 01-2.296.448 1.933 1.317-45.332 01.423-2.3" stroke-width=".46543608"/></g><g stroke-linecap="round" stroke-dashoffset=".162"><path d="M654.836 291.585a4.93 4.93 0 012.807 6.381 4.93 4.93 0 01-6.38 2.807 4.93 4.93 0 01-2.808-6.381 4.93 4.93 0 016.381-2.807" stroke-width="1.3445931199999999"/><path d="M650.63 293.261a1.933 1.317-45.332 012.296-.449 1.933 1.317-45.332 01-.422 2.3 1.933 1.317-45.332 01-2.296.45 1.933 1.317-45.332 01.422-2.301" stroke-width=".46543608"/></g></g><g style="mix-blend-mode:normal"><g transform="matrix(68.47145 0 0 67.93916 -89.503 -17.006)" style="mix-blend-mode:normal" fill="#9af3b7" stroke-width=".053" filter="url(#i)"><path d="M7.201 6.868c-.17.002.032.087.255.122.061-.049.117-.097.167-.144-.139.034-.28.034-.422.022M8.116 6.64a1.08 1.08 0 00.202-.453c-.023.113-.084.21-.142.314-.319.2-.03-.12 0-.24-.343.43-.048.258-.06.379M8.454 5.76c.02-.306-.06-.21-.088-.092.032.016.057.216.088.093M6.554 1.565c.091.016.197.028.182.05.1-.022.122-.042-.182-.05M6.736 1.615l-.064.013.06-.005.004-.008"/><path fill="#7ceea0" d="M9.573 5.877c.01.276-.08.41-.162.646l-.148.074c-.12.234.012.149-.074.335-.189.167-.571.523-.694.556-.09-.002.06-.106.08-.146-.252.173-.202.26-.587.365l-.011-.025c-.95.447-2.271-.44-2.254-1.648-.01.077-.029.057-.05.088-.049-.622.288-1.246.855-1.502.555-.274 1.205-.162 1.602.209-.218-.286-.652-.59-1.167-.561-.504.008-.976.329-1.134.677-.258.162-.288.627-.4.712-.152 1.113.284 1.594 1.023 2.16.116.078.032.09.048.15a2.003 2.003 0 01-.655-.5c.098.143.204.282.34.392-.23-.078-.54-.56-.63-.58.399.714 1.618 1.252 2.256.985-.295.01-.67.006-1.002-.117-.14-.072-.33-.22-.295-.248.87.325 1.77.246 2.524-.358.192-.15.402-.403.462-.407-.091.137.016.066-.054.187.19-.308-.083-.125.197-.532l.104.143c-.04-.256.317-.567.281-.971.082-.124.091.133.005.417.12-.315.031-.366.062-.627.033.088.078.181.1.274-.078-.306.08-.514.12-.692-.04-.017-.121.135-.14-.225.003-.157.043-.082.06-.12-.032-.018-.112-.138-.161-.368.035-.055.095.14.143.148-.03-.183-.084-.323-.087-.463-.141-.296-.05.04-.164-.127-.151-.47.124-.109.143-.322.228.33.358.842.418 1.055a4.318 4.318 0 00-.21-.752c.07.03-.111-.532.091-.16-.216-.793-.922-1.533-1.571-1.88.079.072.18.163.143.178-.323-.192-.266-.208-.312-.289-.263-.107-.281.009-.455 0-.496-.263-.592-.235-1.049-.4l.021.097c-.328-.11-.383.042-.738 0-.022-.016.114-.06.225-.077-.317.042-.303-.062-.614.012.077-.054.158-.09.24-.135-.26.016-.619.15-.508.028-.423.188-1.173.453-1.595.848l-.013-.088c-.193.231-.842.692-.893.992l-.052.012c-.1.17-.166.363-.245.538-.132.224-.193.086-.174.121-.259.524-.387.964-.498 1.326.08.118.002.71.032 1.185-.13 2.344 1.645 4.62 3.585 5.145.284.101.707.098 1.066.108-.424-.122-.479-.064-.892-.208-.298-.141-.364-.301-.575-.485l.084.148c-.414-.147-.241-.181-.578-.288l.09-.116c-.135-.01-.356-.227-.417-.346l-.147.005c-.176-.217-.27-.374-.263-.496l-.048.085c-.054-.093-.65-.817-.34-.648-.058-.053-.134-.086-.217-.236l.063-.072c-.148-.191-.273-.436-.264-.518.08.107.135.127.19.145-.376-.93-.398-.05-.682-.948l.06-.004c-.046-.07-.074-.145-.11-.22l.025-.26c-.27-.312-.075-1.329-.036-1.886.027-.226.226-.468.377-.846L3.23 4.51c.175-.307 1.004-1.232 1.388-1.185.185-.233-.037 0-.074-.06.409-.422.537-.298.812-.374.297-.176-.255.07-.114-.067.514-.13.364-.298 1.034-.365.07.04-.164.063-.223.115.428-.21 1.354-.162 1.956.116.698.326 1.483 1.29 1.514 2.198l.035.01c-.018.36.055.777-.071 1.16l.085-.181"/><path d="M5.34 7.101l-.024.12c.112.152.201.317.344.436-.103-.2-.18-.284-.32-.556M5.605 7.091c-.06-.066-.094-.144-.134-.223.038.138.115.257.187.378l-.053-.155M10.292 6.072l-.025.063a3.031 3.031 0 01-.297.948c.168-.315.276-.66.322-1.01M6.588 1.483c.115-.042.283-.023.406-.051-.16.013-.318.021-.475.041l.07.01M2.541 3.635c.027.245-.184.34.047.179.125-.28-.048-.078-.047-.18M2.269 4.773c.054-.164.063-.263.084-.358-.148.189-.068.23-.084.358"/></g></g><g style="mix-blend-mode:normal"><g stroke-width=".053" fill="#a80030"><path d="M405.598 450.463c-12.1.162 2.276 6.22 18.078 8.659a161.076 161.076 0 0011.85-10.206c-9.825 2.406-19.836 2.463-29.928 1.547M470.532 434.273c7.233-9.955 12.481-20.84 14.336-32.098-1.628 8.018-5.961 14.943-10.076 22.265-22.622 14.247-2.138-8.456-.016-17.098-24.315 30.64-3.353 18.37-4.244 26.93M494.53 371.874c1.474-21.795-4.284-14.894-6.22-6.592 2.252 1.182 4.042 15.372 6.22 6.592M359.69 73.985c6.464 1.15 13.964 2.04 12.887 3.588 7.095-1.563 8.69-2.973-12.886-3.588M372.585 77.573l-4.544.948 4.236-.39.308-.558"/><path d="M574.01 380.136c.73 19.568-5.71 29.077-11.533 45.891l-10.473 5.208c-8.561 16.637.85 10.562-5.28 23.788-13.381 11.882-40.547 37.169-49.245 39.485-6.358-.137 4.3-7.5 5.693-10.375-17.891 12.279-14.36 18.434-41.728 25.91l-.794-1.79c-67.468 31.75-161.195-31.159-159.964-116.98-.713 5.442-2.049 4.082-3.54 6.269-3.482-44.15 20.395-88.495 60.666-106.63 39.387-19.487 85.562-11.5 113.756 14.814-15.486-20.297-46.337-41.817-82.873-39.825-35.808.583-69.315 23.335-80.492 48.046-18.338 11.542-20.476 44.515-28.462 50.557-10.764 79.05 20.224 113.19 72.652 153.371 8.23 5.556 2.317 6.407 3.418 10.635-17.414-8.148-33.353-20.46-46.475-35.533 6.966 10.181 14.474 20.079 24.185 27.854-16.433-5.548-38.375-39.792-44.765-41.185 28.307 50.686 114.834 88.891 160.166 69.93-20.977.778-47.616.43-71.17-8.277-9.921-5.095-23.358-15.632-20.953-17.6 61.848 23.091 125.72 17.478 179.225-25.408 13.623-10.61 28.494-28.648 32.795-28.891-6.472 9.735 1.11 4.681-3.864 13.275 13.542-21.877-5.904-8.91 14.012-37.776l7.354 10.124c-2.753-18.175 22.557-40.221 19.982-68.942 5.807-8.78 6.471 9.46.312 29.66 8.545-22.411 2.26-26.015 4.447-44.514 2.357 6.22 5.491 12.821 7.087 19.39-5.572-21.666 5.694-36.472 8.497-49.067-2.77-1.215-8.594 9.574-9.938-16.004.206-11.113 3.102-5.824 4.212-8.561-2.171-1.256-7.897-9.777-11.372-26.113 2.503-3.847 6.739 9.954 10.173 10.513-2.209-12.983-6.007-22.89-6.17-32.86-10.043-20.977-3.555 2.803-11.687-9.006-10.691-33.321 8.861-7.735 10.19-22.865 16.182 23.448 25.407 59.815 29.66 74.871-3.24-18.361-8.464-36.155-14.855-53.367 4.933 2.082-7.93-37.768 6.407-11.38-15.3-56.25-65.428-108.816-111.554-133.47 5.63 5.159 12.749 11.639 10.205 12.66-22.953-13.648-18.92-14.726-22.208-20.493-18.67-7.605-19.917.624-32.268.017-35.233-18.694-42.02-16.71-74.443-28.405l1.475 6.9c-23.335-7.775-27.19 2.933-52.404.017-1.53-1.19 8.083-4.341 16.005-5.483-22.565 2.98-21.512-4.455-43.592.818 5.435-3.815 11.202-6.35 17.001-9.59-18.394 1.118-43.931 10.707-36.05 1.976-30.009 13.397-83.311 32.195-113.223 60.244l-.94-6.285c-13.703 16.45-59.765 49.13-63.434 70.457l-3.67.85c-7.119 12.076-11.743 25.756-17.397 38.173-9.322 15.9-13.672 6.123-12.343 8.618-18.346 37.192-27.474 68.44-35.338 94.083 5.605 8.383.137 50.476 2.251 84.161-9.2 166.395 116.778 327.939 254.485 365.229 20.184 7.233 50.192 6.973 75.722 7.686-30.114-8.618-34.002-4.56-63.354-14.79-21.164-9.978-25.797-21.358-40.797-34.373l5.937 10.488c-29.401-10.408-17.098-12.878-41.024-20.45l6.342-8.27c-9.533-.73-25.246-16.054-29.539-24.566l-10.432.412c-12.521-15.437-19.203-26.59-18.71-35.232l-3.369 6.01c-3.815-6.552-46.094-57.976-24.16-46.005-4.074-3.71-9.493-6.05-15.365-16.733l4.463-5.095C151 592.755 142.115 575.35 142.796 569.55c5.629 7.597 9.533 9.022 13.404 10.326-26.655-66.123-28.154-3.636-48.33-67.306l4.261-.34c-3.264-4.949-5.265-10.286-7.889-15.543l1.863-18.507c-19.18-22.16-5.362-94.318-2.584-133.884 1.904-16.086 16.013-33.216 26.729-60.082l-6.529-1.118c12.49-21.77 71.292-87.466 98.538-84.096 13.194-16.572-2.624-.065-5.208-4.228 28.988-29.992 38.1-21.188 57.66-26.59 21.083-12.514-18.102 4.891-8.107-4.771 36.472-9.306 25.837-21.172 73.405-25.894 5.022 2.85-11.639 4.406-15.818 8.107 30.373-14.87 96.132-11.476 138.865 8.246C512.6 177.042 568.3 245.507 570.503 309.922l2.503.672c-1.264 25.61 3.92 55.23-5.078 82.428l6.082-12.886"/><path d="M273.488 467.067l-1.709 8.48c7.962 10.813 14.28 22.525 24.428 30.948-7.305-14.247-12.724-20.135-22.719-39.428M292.287 466.338c-4.212-4.665-6.69-10.27-9.492-15.842 2.672 9.808 8.148 18.24 13.226 26.825l-3.734-10.983M625.045 394.01l-1.773 4.471c-3.256 23.148-10.311 46.054-21.1 67.299 11.923-22.412 19.61-46.929 22.873-71.77M362.096 68.178c8.173-2.99 20.103-1.645 28.802-3.613-11.323.948-22.59 1.515-33.71 2.932l4.908.68M74.8 220.95c1.888 17.446-13.12 24.225 3.321 12.707 8.829-19.876-3.434-5.483-3.32-12.708M55.46 301.733c3.798-11.639 4.478-18.62 5.928-25.367-10.473 13.396-4.827 16.255-5.929 25.367"/></g></g></svg>